<svg width="160" height="160" viewBox="0 0 160 160" fill="none" xmlns="http://www.w3.org/2000/svg">
<path d="M96.0651 82.2184L8.98682 55.7835L63.7861 31.0877L154.242 49.8704L96.0651 82.2184Z" fill="#3B3A38"/>
<path d="M96.0651 82.2184L8.98682 55.7835L63.7861 31.0877L154.242 49.8704L96.0651 82.2184Z" fill="#3B3A38"/>
<path d="M63.8882 30.5985L154.344 49.3807C154.549 49.4232 154.705 49.5884 154.737 49.7948C154.768 50.0012 154.668 50.2059 154.486 50.3075L96.3081 82.6551C96.1897 82.721 96.0491 82.7365 95.9194 82.6971L8.84131 56.2616C8.64211 56.2009 8.50118 56.0231 8.48779 55.8153C8.47457 55.6075 8.59189 55.4135 8.78174 55.328L63.5806 30.6317L63.6548 30.6053C63.7304 30.5847 63.8107 30.5824 63.8882 30.5985ZM10.4048 55.6913L96.0063 81.6776L152.824 50.0868L63.8433 31.6102L10.4048 55.6913Z" fill="#151413"/>
<path d="M94.1045 87.034L32.6045 68.284L33.1045 66.534L34.1045 65.034L36.6045 64.284L39.1045 64.784L39.3545 64.284L40.3545 62.534L42.3545 61.784L44.1045 61.534L44.6045 60.534L46.1045 59.284L48.1045 58.784H49.3545L49.8545 57.784L51.6045 57.034L51.3545 56.284L52.3545 54.784L53.6045 53.534L55.6045 53.034L56.6045 52.534L57.6045 51.034L59.3545 49.784H61.8545L63.3545 50.784L64.3545 52.034L65.6045 51.284L66.8545 50.784H68.6045L70.3545 52.034L70.8545 51.784L72.6045 50.534L74.8545 50.284L77.1045 51.034L78.6045 53.284L79.6045 53.034L81.6045 53.284L82.8545 53.034L84.3545 51.034L86.8545 50.284L88.8545 50.784L90.6045 52.534L92.6045 52.284L95.3545 53.284L96.6045 55.034L98.1045 55.534L99.1045 56.534L100.854 55.784L103.104 56.284L104.604 57.784L105.854 57.284L108.854 57.534L110.604 59.534L111.854 58.784L115.104 58.284L117.104 60.034L117.854 61.534H121.104L123.604 63.034L124.604 63.784L126.604 63.034L130.104 63.784L130.854 66.034L94.1045 87.034Z" fill="#E3A849"/>
<path d="M79.752 72.6893C81.309 70.2811 84.4892 69.7543 86.5781 71.6102L86.7812 71.8016L86.8135 71.8417C86.8772 71.9386 86.8664 72.0698 86.7812 72.1551C86.6958 72.2406 86.5639 72.2516 86.4668 72.1874L86.4277 72.1551L86.248 71.9862C84.437 70.377 81.6782 70.7735 80.25 72.8426C81.9103 73.4455 83.2451 74.8875 83.3545 76.9657C83.3617 77.1036 83.2551 77.2211 83.1172 77.2284C82.9795 77.2354 82.8618 77.1297 82.8545 76.9921C82.7576 75.1509 81.588 73.8655 80.0967 73.3182L79.7949 73.2186C77.7077 72.6074 75.1547 73.4028 74.0869 76.0721L73.8545 75.9784L73.6221 75.8856C74.7668 73.0241 77.4853 72.1135 79.752 72.6893ZM74.0869 76.0721C74.0355 76.2001 73.8898 76.262 73.7617 76.2108C73.6335 76.1595 73.5708 76.0138 73.6221 75.8856L74.0869 76.0721ZM105.103 72.0067C105.087 72.1437 104.964 72.2425 104.827 72.2274C104.69 72.2122 104.591 72.0883 104.606 71.951L105.103 72.0067ZM89.6543 66.829C90.8422 65.2451 92.6945 64.715 94.3145 65.0702C95.8256 65.4015 97.1419 66.5065 97.5303 68.2382C98.9792 67.3154 100.877 67.2526 102.404 67.8544C104.058 68.5058 105.33 69.9621 105.103 72.0067L104.854 71.9784L104.606 71.951C104.802 70.1888 103.723 68.9113 102.221 68.3192C100.805 67.7614 99.0595 67.8359 97.7607 68.6825L97.5068 68.8622C97.0285 69.23 96.6218 69.7172 96.3311 70.3348C96.2723 70.4598 96.123 70.5137 95.998 70.4549C95.8731 70.3961 95.8191 70.2469 95.8779 70.1219C96.1788 69.4828 96.5948 68.9664 97.083 68.5633C96.8045 66.9135 95.609 65.8658 94.207 65.5585C92.7646 65.2423 91.1167 65.7128 90.0547 67.1288L89.8545 66.9784L89.6543 66.829ZM52.3545 69.9784C52.3546 68.4907 52.7923 67.3813 53.4766 66.6171C54.1595 65.8545 55.0709 65.4549 55.9834 65.3553C56.8936 65.2561 57.8179 65.4534 58.5371 65.8993C59.1768 66.2959 59.6607 66.8954 59.8115 67.6571C60.493 67.3388 61.2477 67.2085 61.9707 67.244C63.5335 67.3208 65.0616 68.1793 65.3496 69.6815C65.3756 69.8171 65.287 69.9485 65.1514 69.9745C65.016 70.0003 64.8855 69.9115 64.8594 69.7762C64.6329 68.594 63.3901 67.814 61.9463 67.743C60.5193 67.673 59.0105 68.3098 58.333 69.8309L58.1045 69.7284L57.876 69.6268C58.216 68.8635 58.7362 68.2982 59.3457 67.91C59.2647 67.2326 58.8618 66.6888 58.2734 66.3241C57.6568 65.9419 56.8465 65.7643 56.0381 65.8524C55.232 65.9403 54.44 66.291 53.8496 66.9501C53.2607 67.6076 52.8546 68.5918 52.8545 69.9784C52.8545 70.1165 52.7426 70.2284 52.6045 70.2284C52.4664 70.2284 52.3545 70.1165 52.3545 69.9784ZM58.333 69.8309C58.2767 69.9568 58.129 70.013 58.0029 69.9569C57.8768 69.9007 57.8198 69.7529 57.876 69.6268L58.333 69.8309ZM60.2451 49.5507C61.8853 49.4135 63.6188 50.1269 64.4092 51.7206C65.3029 50.8111 66.512 50.3713 67.6523 50.4032C68.7731 50.4346 69.8454 50.9247 70.4746 51.8885C71.3642 50.6323 73.0334 49.9551 74.6201 50.0135C76.3733 50.0783 78.0887 51.0426 78.5977 53.1708C78.5987 53.1753 78.5988 53.1799 78.5996 53.1844C78.7998 53.0857 79.0099 53.0038 79.2266 52.9393C80.3198 52.6138 81.6009 52.7265 82.6992 53.3739C83.0506 51.6297 84.542 50.4924 86.1621 50.201C87.8482 49.8979 89.7294 50.4995 90.7021 52.3143C91.9888 51.8955 93.4247 51.9846 94.5664 52.4618C95.6864 52.9299 96.5673 53.7965 96.6865 54.9676C97.7438 54.9367 98.7636 55.2852 99.2559 56.2352C100.229 55.6374 101.416 55.454 102.459 55.6747C103.494 55.8937 104.408 56.518 104.813 57.5487C105.733 56.9843 106.908 56.7898 107.996 57.0428C109.116 57.3035 110.142 58.0393 110.701 59.3221C111.927 58.3852 113.382 57.9456 114.711 58.1688C116.148 58.4104 117.388 59.4202 118 61.2997C118.664 61.154 119.356 61.1111 120.029 61.16C121.684 61.2805 123.297 61.9664 124.157 63.16L124.319 63.4051L124.341 63.451C124.379 63.5606 124.337 63.6857 124.233 63.7479C124.13 63.8102 123.998 63.789 123.92 63.703L123.89 63.663L123.751 63.451C123.006 62.4189 121.56 61.7721 119.992 61.6581C118.325 61.5369 116.598 62.0253 115.54 63.201C115.448 63.3036 115.29 63.3119 115.188 63.2196C115.085 63.1272 115.077 62.9697 115.169 62.8671C115.796 62.1706 116.618 61.7005 117.515 61.4286C116.951 59.7218 115.854 58.8681 114.629 58.662C113.456 58.4648 112.126 58.8536 110.982 59.7362L110.757 59.9198C110.02 60.5457 109.387 61.4244 108.973 62.5487L108.738 62.4618L108.503 62.3758C108.921 61.2429 109.552 60.3334 110.3 59.659C109.821 58.4422 108.896 57.7659 107.883 57.5301C106.885 57.2981 105.805 57.4928 104.99 58.0272L104.83 58.1395C104.616 58.299 104.424 58.4833 104.262 58.6903L104.227 58.7274C104.138 58.8027 104.005 58.8069 103.91 58.7323C103.802 58.6469 103.783 58.4902 103.868 58.3817L104.018 58.204C104.133 58.0761 104.259 57.9579 104.392 57.8485C104.084 56.935 103.303 56.3644 102.355 56.1639C101.415 55.965 100.335 56.1384 99.4658 56.6923L99.2949 56.8085C99.0838 56.9605 98.8879 57.1368 98.7119 57.3368L98.6748 57.371C98.5821 57.4413 98.4492 57.4391 98.3584 57.3592C98.255 57.2681 98.245 57.1103 98.3359 57.0067L98.4912 56.8397C98.6031 56.7264 98.7211 56.6211 98.8438 56.5233C98.4792 55.7595 97.6657 55.4342 96.6856 55.4686L96.4736 55.4813C95.6438 55.552 94.7619 55.8675 94.0635 56.3368C93.3601 56.8094 92.8802 57.4113 92.7812 58.037C92.7596 58.1731 92.6313 58.2654 92.4951 58.244C92.3588 58.2225 92.2657 58.0951 92.2871 57.9589C92.4165 57.1405 93.0222 56.4337 93.7842 55.9217C94.4837 55.4518 95.3466 55.125 96.1885 55.0116C96.0892 54.0839 95.3886 53.3468 94.374 52.9227C93.3502 52.4948 92.0546 52.4109 90.8955 52.7772L90.666 52.8563C90.0431 53.0896 89.472 53.4585 89.0146 53.9784C88.9235 54.082 88.7658 54.0919 88.6621 54.0008C88.5585 53.9097 88.5477 53.752 88.6387 53.6483C89.0905 53.1347 89.6376 52.7536 90.2295 52.493C89.367 50.9462 87.7443 50.4245 86.25 50.6932C84.7172 50.969 83.3798 52.0645 83.1572 53.6825C83.4686 53.9231 83.7584 54.212 84.0156 54.5526L84.1377 54.7215L84.1621 54.7665C84.2075 54.8733 84.1733 55.0005 84.0742 55.0692C83.9748 55.1379 83.8427 55.1253 83.7588 55.0448L83.7266 55.0057L83.6172 54.8544C83.393 54.5575 83.1405 54.3084 82.873 54.0985C82.8701 54.0984 82.8672 54.0997 82.8643 54.0995C82.7625 54.0912 82.679 54.0231 82.6475 53.9325C81.6316 53.2465 80.4029 53.111 79.3691 53.4188C78.3708 53.7161 77.5749 54.4167 77.3125 55.412L77.2676 55.6151C77.247 55.7274 77.2328 55.8439 77.2256 55.9637L76.9756 55.9481L76.7266 55.9335C76.735 55.7939 76.7511 55.6575 76.7754 55.5253L76.8301 55.2821C77.0419 54.4793 77.542 53.8476 78.1924 53.4178C78.1537 53.3847 78.1241 53.3403 78.1113 53.287C77.6657 51.4236 76.1827 50.572 74.6025 50.5135C73.0484 50.4562 71.4646 51.1711 70.7432 52.3924C70.752 52.4133 70.762 52.4338 70.7705 52.4549L70.8418 52.6493L70.8525 52.6991C70.8665 52.8145 70.7982 52.9274 70.6836 52.9657C70.569 53.0039 70.4458 52.955 70.3877 52.8544L70.3672 52.8075L70.3057 52.6415L70.2363 52.4823C69.7557 51.4691 68.7494 50.9344 67.6387 50.9032C66.5603 50.873 65.4076 51.3215 64.6035 52.2469C64.5965 52.3426 64.5347 52.4304 64.4385 52.4647C64.4351 52.4659 64.4312 52.4656 64.4277 52.4667C64.1902 52.7833 63.9882 53.1479 63.8398 53.5633L63.6045 53.4784L63.3691 53.3944C63.5386 52.92 63.7699 52.5008 64.0469 52.1376C63.4137 50.6319 61.8392 49.9189 60.2871 50.0487C58.7739 50.1753 57.3405 51.0987 56.9072 52.8163C57.455 52.9008 57.9939 53.0791 58.4951 53.3671L58.7432 53.5204L58.7822 53.5526C58.8642 53.6351 58.8794 53.7665 58.8125 53.8671C58.7455 53.9675 58.6184 54.0044 58.5107 53.9608L58.4658 53.9364L58.2461 53.8007C57.8015 53.5453 57.321 53.3862 56.8281 53.3104L56.5801 53.2792C55.2889 53.1536 53.9525 53.5786 53.0156 54.3016C52.1452 54.9733 51.6583 55.8663 51.8018 56.788C52.6445 56.6798 53.563 56.7734 54.3604 57.0467C55.1744 57.3259 55.8999 57.8055 56.2646 58.4882L56.333 58.6268L56.3486 58.6757C56.3734 58.7891 56.3163 58.9078 56.2061 58.9569C56.0956 59.006 55.9689 58.9686 55.9014 58.8739L55.876 58.8299L55.8232 58.7235C55.5404 58.1953 54.9497 57.777 54.1982 57.5194C53.5018 57.2807 52.6997 57.1919 51.9609 57.2714L51.6484 57.3153C50.5872 57.5045 49.7936 58.0439 49.6279 58.9354C49.7716 58.9982 49.9125 59.0698 50.0498 59.1503L50.2432 59.2704L50.2822 59.3026C50.3642 59.3851 50.3794 59.5165 50.3125 59.6171C50.2455 59.7175 50.1184 59.7544 50.0107 59.7108L49.9658 59.6864L49.7969 59.5809C49.6828 59.5141 49.5658 59.4542 49.4463 59.4012L49.2656 59.327C48.2337 58.9354 47.0572 59.0315 46.1426 59.496C45.2791 59.9345 44.6707 60.687 44.6094 61.6493C44.8367 61.7527 45.0541 61.8786 45.2549 62.0292C45.3649 62.1121 45.3873 62.2685 45.3047 62.3788C45.2218 62.4892 45.0646 62.5114 44.9541 62.4286C44.796 62.3101 44.6255 62.2082 44.4453 62.1229L44.2617 62.0428C43.3002 61.6604 42.1203 61.7299 41.1562 62.244C40.2383 62.7336 39.5178 63.6254 39.3701 64.9247C40.2667 65.383 41.112 66.098 41.8086 67.0848C41.8881 67.1976 41.8618 67.3539 41.749 67.4335C41.6362 67.5131 41.48 67.4857 41.4004 67.3729C40.7957 66.5163 40.0785 65.8847 39.3232 65.4628L38.9971 65.2948C37.5849 64.6258 36.0858 64.5535 34.9316 65.0799C33.7915 65.6001 32.9456 66.7239 32.8545 68.5467C32.8475 68.6845 32.7296 68.7909 32.5918 68.784C32.454 68.7771 32.3476 68.6592 32.3545 68.5214C32.4538 66.5353 33.3943 65.2328 34.7246 64.6258C35.9501 64.0668 37.4695 64.1148 38.8955 64.703C39.1038 63.3192 39.9061 62.3439 40.9209 61.8026C41.9063 61.2771 43.0912 61.1612 44.125 61.4686C44.2502 60.368 44.973 59.5286 45.916 59.0497C46.8667 58.5669 48.0602 58.4378 49.1543 58.7635C49.3841 57.7188 50.2796 57.1184 51.3086 56.8749C51.1213 55.7129 51.7492 54.6477 52.71 53.9061C53.6893 53.1503 55.0535 52.6936 56.4043 52.7655C56.8749 50.7607 58.5378 49.6935 60.2451 49.5507ZM90.0547 67.1288C89.9718 67.2392 89.8146 67.2614 89.7041 67.1786C89.594 67.0957 89.5717 66.9393 89.6543 66.829L90.0547 67.1288ZM127.253 62.7342C128.804 62.7093 130.237 63.4866 130.956 65.1132L131.09 65.4501L131.103 65.4989C131.119 65.6141 131.052 65.7288 130.938 65.7694C130.825 65.81 130.701 65.7634 130.641 65.6639L130.619 65.618L130.501 65.3202C129.867 63.8818 128.622 63.2123 127.261 63.2342C125.797 63.2578 124.179 64.0851 123.059 65.6776C122.979 65.7905 122.824 65.8176 122.711 65.7382C122.598 65.6587 122.571 65.5034 122.65 65.3905C123.852 63.6833 125.61 62.7607 127.253 62.7342ZM108.973 62.5487C108.925 62.6781 108.781 62.7439 108.651 62.6962C108.522 62.6484 108.456 62.5052 108.503 62.3758L108.973 62.5487ZM77.2256 55.9637C77.2171 56.1013 77.0986 56.2064 76.9609 56.1981C76.8232 56.1898 76.7184 56.0712 76.7266 55.9335L77.2256 55.9637ZM63.8398 53.5633C63.7933 53.693 63.6503 53.7609 63.5205 53.7147C63.3905 53.6683 63.3227 53.5244 63.3691 53.3944L63.8398 53.5633Z" fill="#151413"/>
<path d="M45.4502 82.7054C46.9585 80.8635 49.1487 79.4838 52.1885 78.1342L52.8077 77.8647L52.8794 77.8362C53.624 77.5618 54.461 77.9171 54.7763 78.6551C55.0915 79.3931 54.7695 80.2432 54.0565 80.5914L53.9863 80.6235L53.3966 80.8804C50.5276 82.1557 48.8426 83.2978 47.7712 84.6061C46.7244 85.8846 46.1449 87.4685 45.8015 89.8994L45.7359 90.3968C45.6348 91.219 44.8864 91.8038 44.0642 91.7029C43.2421 91.6018 42.6572 90.8534 42.7582 90.0312L42.8309 89.4822C43.2132 86.7725 43.9174 84.5772 45.4502 82.7054Z" fill="#9780FF"/>
<path d="M45.3682 82.0324C46.9325 80.2801 49.1115 78.9537 51.986 77.6775L51.9885 77.676L52.6081 77.4062L52.6239 77.4001L52.7067 77.3673L52.8943 77.3078C53.774 77.0784 54.7079 77.4765 55.149 78.2804L55.2358 78.4584C55.656 79.4424 55.2271 80.576 54.276 81.0406L54.2646 81.0463L54.194 81.0786L54.1859 81.0823L53.5993 81.3368C50.9341 82.5215 49.3608 83.5654 48.3523 84.6953L48.1579 84.9231C47.1926 86.1021 46.6333 87.5832 46.2964 89.9647L46.2977 89.965L46.2314 90.4623C46.1031 91.4876 45.2195 92.2351 44.2075 92.2139L44.0035 92.1989C42.9074 92.0642 42.1275 91.0667 42.262 89.9705L42.2625 89.9656L42.3352 89.4166L42.3361 89.4126L42.4131 88.901C42.8191 86.3704 43.5502 84.236 45.0629 82.3886L45.3682 82.0324ZM52.3913 78.5917C49.5666 79.8458 47.5386 81.102 46.1139 82.698L45.8372 83.0222C44.3854 84.7951 43.7017 86.8893 43.3259 89.5525L43.2537 90.0967C43.1892 90.6428 43.5783 91.1393 44.1248 91.2067L44.2275 91.2143C44.7339 91.2248 45.1764 90.8498 45.2397 90.3361L45.2402 90.3312L45.3056 89.8345L45.3061 89.8297L45.3748 89.3743C45.7333 87.1426 46.3272 85.5802 47.3844 84.289L47.6066 84.0296C48.7549 82.7432 50.4798 81.6302 53.1937 80.4239L53.1971 80.4219L53.7777 80.1688L53.8419 80.1392C54.3131 79.9057 54.5258 79.3418 54.3167 78.8517L54.2733 78.7627C54.0389 78.3351 53.5257 78.1374 53.0636 78.3016L52.9918 78.33L52.3913 78.5917Z" fill="#151413"/>
<path d="M79.0015 77.3612C79.4706 76.86 80.2471 76.8189 80.7656 77.2569L80.8148 77.3012L90.6916 86.5438L90.743 86.5942C90.9903 86.8532 91.1188 87.2051 91.0952 87.5646C91.07 87.948 90.8745 88.3 90.5621 88.5237L81.7403 94.8389L87.9119 103.003C88.3272 103.552 88.2348 104.331 87.7024 104.768L77.7178 112.96L77.666 113.001C77.1201 113.404 76.3478 113.313 75.9124 112.782C75.4629 112.235 75.5428 111.426 76.0906 110.977L85.1213 103.566L78.8997 95.3363C78.691 95.0602 78.6026 94.7113 78.6546 94.3692C78.7067 94.0271 78.8951 93.7206 79.1764 93.5192L87.7956 87.3479L79.0615 79.1745L79.0142 79.1284C78.5428 78.6401 78.5325 77.8624 79.0015 77.3612Z" fill="#FF7D47"/>
<path d="M80.949 76.7688L81.0882 76.8745L81.1 76.8851L81.1497 76.9292L81.1571 76.936L91.0329 86.1786L91.0427 86.1869L91.0932 86.2372L91.1045 86.2487L91.2253 86.39C91.4894 86.7317 91.6229 87.1604 91.5943 87.5973L91.5696 87.7951C91.4998 88.1849 91.3025 88.5409 91.0081 88.8059L90.8534 88.9299L82.449 94.9462L88.3105 102.701L88.4107 102.848C88.8387 103.548 88.7313 104.455 88.1511 105.035L88.0195 105.155L78.0348 113.346L78.0272 113.353L77.9746 113.394L77.9633 113.403C77.2518 113.929 76.2641 113.85 75.6448 113.231L75.5258 113.1C74.9011 112.338 75.0126 111.215 75.7737 110.591L84.4334 103.484L78.5007 95.6376C78.2471 95.302 78.1216 94.8889 78.1426 94.4724L78.1599 94.2942C78.2324 93.8185 78.4946 93.3921 78.8854 93.1123L87.009 87.2953L78.7197 79.5392L78.7124 79.5325L78.6659 79.4869L78.6546 79.4754C77.9991 78.7964 77.9848 77.7162 78.6362 77.0198L78.7634 76.896C79.3778 76.3567 80.2818 76.3086 80.949 76.7688ZM80.4385 77.6345C80.1424 77.3883 79.7102 77.3965 79.4226 77.649L79.3667 77.7029C79.0804 78.0089 79.0869 78.4834 79.3741 78.7809L79.4037 78.8093L88.137 86.9831C88.2463 87.0854 88.3045 87.231 88.2947 87.3804C88.2849 87.5299 88.2085 87.6674 88.0867 87.7546L79.4676 93.9258C79.2958 94.0488 79.1806 94.2356 79.1487 94.4439L79.1407 94.5226C79.1315 94.7054 79.187 94.8869 79.2984 95.0344L85.5206 103.265C85.6823 103.479 85.6461 103.783 85.4389 103.953L76.408 111.364C76.0737 111.638 76.0248 112.131 76.299 112.466L76.3511 112.523C76.6231 112.795 77.057 112.829 77.369 112.599L77.4005 112.573L87.3853 104.382L87.4428 104.329C87.6975 104.074 87.7448 103.677 87.5569 103.369L87.5128 103.304L81.3415 95.1405C81.2602 95.033 81.2253 94.897 81.2456 94.7637C81.2658 94.6305 81.3395 94.5111 81.449 94.4326L90.2707 88.1173L90.3384 88.0626C90.4678 87.9462 90.555 87.79 90.5857 87.6186L90.5961 87.5322C90.6105 87.3131 90.5328 87.0984 90.3829 86.9408L90.3502 86.9082L80.4804 77.6727L80.4385 77.6345Z" fill="#151413"/>
<path d="M99.5242 80.0599C99.9231 79.3637 100.796 79.1084 101.503 79.4673L101.571 79.5039L102.185 79.8617C105.186 81.6479 107.195 83.3902 108.101 85.559C109.028 87.7812 108.662 90.113 107.79 92.6856L107.609 93.2035C107.329 93.983 106.47 94.388 105.69 94.108C104.911 93.8279 104.506 92.9687 104.786 92.1891L104.954 91.7067C105.747 89.3561 105.831 87.9103 105.332 86.7149C104.811 85.4659 103.515 84.1496 100.67 82.452L100.08 82.1073L100.014 82.0673C99.3464 81.6385 99.1253 80.7563 99.5242 80.0599Z" fill="#9780FF"/>
<path d="M99.1971 79.6442C99.7286 78.897 100.703 78.6113 101.55 78.9412L101.73 79.0217L101.74 79.0266L101.808 79.0633L101.824 79.072L102.437 79.4294L102.44 79.4317C105.273 81.1179 107.322 82.8164 108.366 84.9366L108.562 85.3664C109.562 87.7607 109.147 90.24 108.264 92.8466L108.262 92.8506L108.082 93.3681L108.08 93.3722C107.73 94.3468 106.7 94.8827 105.717 94.6379L105.521 94.5785C104.483 94.2055 103.943 93.0625 104.313 92.0241L104.482 91.5417C105.262 89.2274 105.297 87.9301 104.871 86.9075L104.776 86.7009C104.261 85.6566 103.063 84.4623 100.414 82.8817L99.828 82.5393L99.8226 82.5362L99.7563 82.4955L99.7436 82.4884C98.853 81.9164 98.5589 80.7403 99.0904 79.8118L99.1971 79.6442ZM101.266 79.9083C100.826 79.692 100.294 79.8283 100.012 80.225L99.9575 80.3083C99.6928 80.7707 99.8383 81.3567 100.279 81.6435L100.333 81.6757L100.923 82.0205L100.926 82.0228L101.447 82.3391C103.797 83.8006 105.068 85.0312 105.674 86.2594L105.793 86.5226C106.364 87.8902 106.232 89.4831 105.427 91.8666L105.426 91.8713L105.258 92.3537L105.256 92.3578C105.07 92.8775 105.34 93.4505 105.859 93.6373L105.957 93.6671C106.448 93.7889 106.96 93.5226 107.136 93.0378L107.316 92.525L107.472 92.0535C108.212 89.7141 108.442 87.6735 107.639 85.7514L107.469 85.378C106.558 83.5293 104.724 81.9558 101.933 80.2938L101.334 79.9443L101.266 79.9083Z" fill="#151413"/>
<path d="M92.9868 85.5878C92.9868 86.4162 92.3152 87.0878 91.4868 87.0878C90.6584 87.0878 89.9868 86.4162 89.9868 85.5878C89.9868 84.7593 90.6584 84.0878 91.4868 84.0878C92.3152 84.0878 92.9868 84.7593 92.9868 85.5878Z" fill="#62FF46"/>
<path d="M91.9868 85.5878C91.9868 85.3116 91.763 85.0878 91.4868 85.0878C91.2107 85.0878 90.9868 85.3116 90.9868 85.5878C90.9868 85.8639 91.2107 86.0878 91.4868 86.0878V87.0878C90.6584 87.0878 89.9868 86.4162 89.9868 85.5878C89.9868 84.7593 90.6584 84.0878 91.4868 84.0878C92.3152 84.0878 92.9868 84.7593 92.9868 85.5878C92.9868 86.4162 92.3152 87.0878 91.4868 87.0878V86.0878C91.763 86.0878 91.9868 85.8639 91.9868 85.5878Z" fill="#151413"/>
<path d="M132.437 66.7785C131.438 67.9217 129.7 68.0381 128.557 67.0382C127.414 66.0384 127.297 64.3011 128.297 63.1578C129.297 62.0146 131.034 61.8983 132.178 62.8981C133.321 63.8979 133.437 65.6352 132.437 66.7785Z" fill="#FFFC36"/>
<path d="M132.437 66.7785C133.437 65.6352 133.321 63.8979 132.178 62.8981C131.034 61.8983 129.297 62.0146 128.297 63.1578C127.297 64.3011 127.414 66.0384 128.557 67.0382C129.7 68.0381 131.438 67.9217 132.437 66.7785ZM133.19 67.4368C131.827 68.9958 129.458 69.1544 127.899 67.791C126.34 66.4276 126.181 64.0586 127.544 62.4995C128.908 60.9405 131.277 60.7819 132.836 62.1453C134.395 63.5087 134.553 65.8777 133.19 67.4368Z" fill="#151413"/>
<path d="M86.2181 87.7632C84.079 90.2093 80.362 90.4581 77.9159 88.319C75.4698 86.1799 75.221 82.4628 77.3601 80.0168C79.4992 77.5707 83.2162 77.3218 85.6623 79.461C88.1084 81.6001 88.3572 85.3171 86.2181 87.7632Z" fill="#2BF9FF"/>
<path d="M86.2181 87.7632C88.2904 85.3936 88.1215 81.8313 85.8851 79.6662L85.6623 79.461C83.2162 77.3218 79.4992 77.5707 77.3601 80.0168L77.1666 80.2499C75.3009 82.615 75.5287 86.0188 77.6931 88.114L77.9159 88.319C80.2855 90.3912 83.8479 90.2225 86.013 87.9861L86.2181 87.7632ZM86.9709 88.4217C84.4683 91.2834 80.1193 91.5745 77.2575 89.0719C74.3957 86.5693 74.1046 82.2204 76.6073 79.3585C79.1099 76.4967 83.4588 76.2056 86.3207 78.7083C89.1824 81.2109 89.4736 85.5599 86.9709 88.4217Z" fill="#151413"/>
<path d="M71.4868 83.5878C71.4868 85.7969 69.8079 87.5878 67.7368 87.5878C65.6657 87.5878 63.9868 85.7969 63.9868 83.5878C63.9868 81.3786 65.6657 79.5878 67.7368 79.5878C69.8079 79.5878 71.4868 81.3786 71.4868 83.5878Z" fill="#2BF9FF"/>
<path d="M70.9868 83.5878C70.9868 81.6239 69.5018 80.0878 67.7368 80.0878C65.9718 80.0878 64.4868 81.6239 64.4868 83.5878C64.4868 85.5516 65.9718 87.0878 67.7368 87.0878V87.5878C65.6657 87.5878 63.9868 85.7969 63.9868 83.5878C63.9868 81.3786 65.6657 79.5878 67.7368 79.5878C69.8079 79.5878 71.4868 81.3786 71.4868 83.5878C71.4868 85.7969 69.8079 87.5878 67.7368 87.5878V87.0878C69.5018 87.0878 70.9868 85.5516 70.9868 83.5878Z" fill="#151413"/>
<path d="M52.8186 84.0181C52.2979 83.3737 52.3981 82.4293 53.0425 81.9087C53.6868 81.3881 54.6313 81.4883 55.1519 82.1326C57.6042 85.1676 59.435 86.8609 61.3423 87.641C63.0627 88.3446 65.0571 88.3852 68.0342 87.5663L68.643 87.3912L68.7172 87.3708C69.4879 87.1812 70.2799 87.6276 70.5108 88.3963C70.7416 89.1649 70.3265 89.9737 69.579 90.2401L69.5057 90.2641L69.1667 90.3638C65.6848 91.3665 62.8556 91.5011 60.2065 90.4176C57.5443 89.3288 55.3093 87.1008 52.8186 84.0181Z" fill="#FF46CE"/>
<path d="M52.3096 84.1669C51.7553 83.3182 51.9224 82.1707 52.7278 81.5198L52.8938 81.3993C53.6861 80.8821 54.7385 80.994 55.4044 81.6663L55.5404 81.8183C57.9865 84.8457 59.7503 86.4503 61.5316 87.1788L61.8316 87.2923C63.3491 87.8284 65.1633 87.8366 67.8954 87.0859L68.5049 86.9107L68.511 86.9091L68.5855 86.8884L68.5976 86.8854L68.7904 86.8477C69.6905 86.7175 70.5747 87.2172 70.9232 88.0658L70.99 88.2525C71.2977 89.2774 70.7439 90.3553 69.7469 90.7107L69.735 90.7152L69.647 90.744L69.308 90.8437L69.3052 90.844C65.9885 91.7992 63.183 92.0001 60.543 91.0798L60.0172 90.881C57.2293 89.7408 54.9266 87.4231 52.4292 84.3324L52.3096 84.1669ZM53.3563 82.2975C52.9539 82.6229 52.8705 83.1964 53.1475 83.6207L53.207 83.7038C55.6912 86.7783 57.8593 88.9174 60.3957 89.9548L60.8679 90.1337C63.2397 90.9616 65.815 90.8086 69.0253 89.8844L69.3502 89.7888L69.4169 89.7671C69.9112 89.5875 70.1853 89.0502 70.0321 88.5399L69.9984 88.4469C69.8118 87.9924 69.318 87.7385 68.8367 87.8569L68.7749 87.8738L68.1721 88.0467L68.1668 88.0488C65.3202 88.8317 63.2812 88.8639 61.5046 88.2379L61.1529 88.1037C59.1196 87.2721 57.221 85.4894 54.7626 82.4468L54.6942 82.3705C54.3614 82.0349 53.836 81.979 53.44 82.2372L53.3563 82.2975Z" fill="#151413"/>
<path d="M103.995 79.0381C104.019 78.2359 104.669 77.5995 105.462 77.5828L105.539 77.5831L117.835 77.9456C118.334 77.9603 118.794 78.2229 119.06 78.6457C119.326 79.0684 119.365 79.5961 119.162 80.0529L113.955 91.8011L126.997 93.7104C127.461 93.7784 127.867 94.0592 128.093 94.4697C128.32 94.8803 128.341 95.3735 128.151 95.8022L123.096 107.207L131.7 109.429L131.774 109.451C132.531 109.688 132.978 110.48 132.777 111.257C132.57 112.059 131.752 112.541 130.95 112.334L120.632 109.669C120.206 109.559 119.849 109.266 119.657 108.87C119.465 108.473 119.457 108.012 119.636 107.609L124.608 96.3922L111.565 94.4828C111.101 94.4148 110.696 94.1337 110.47 93.7232C110.243 93.3125 110.222 92.8198 110.412 92.3911L115.515 80.8786L105.451 80.5821L105.374 80.5778C104.583 80.5143 103.972 79.8403 103.995 79.0381Z" fill="#FF46CE"/>
<path d="M103.511 78.8254C103.628 77.9158 104.353 77.2044 105.255 77.0965L105.451 77.0831L105.464 77.0825L105.541 77.0833L105.554 77.0835L117.849 77.4458L117.974 77.4531C118.55 77.5061 119.076 77.8066 119.414 78.276L119.483 78.3794C119.816 78.9077 119.882 79.5588 119.666 80.1398L119.619 80.2557L114.679 91.4021L127.069 93.2154L127.297 93.263C127.819 93.4027 128.266 93.7492 128.53 94.2283C128.832 94.7759 128.861 95.4336 128.608 96.005L123.792 106.87L131.825 108.945L131.837 108.948L131.911 108.969L131.924 108.973C132.871 109.269 133.453 110.217 133.301 111.188L133.261 111.383C133.002 112.385 132.027 113.012 131.026 112.859L130.825 112.818L120.507 110.153C119.938 110.006 119.463 109.616 119.207 109.087L119.123 108.885C118.953 108.406 118.971 107.877 119.179 107.406L123.884 96.792L111.493 94.9774C110.874 94.8866 110.334 94.5117 110.032 93.9645L109.931 93.7545C109.727 93.2542 109.733 92.6883 109.955 92.1882L114.756 81.356L105.436 81.082L105.423 81.0817L105.346 81.0774L105.334 81.0762C104.278 80.9916 103.464 80.0929 103.495 79.0233L103.511 78.8254ZM105.375 78.0896C104.924 78.1434 104.562 78.4993 104.503 78.9542L104.495 79.0529C104.479 79.5835 104.88 80.0302 105.401 80.0785L105.466 80.0825L115.529 80.3783C115.696 80.3832 115.849 80.471 115.938 80.6116C116.026 80.7525 116.039 80.9287 115.972 81.0809L110.869 92.5934C110.758 92.8435 110.755 93.1264 110.857 93.3766L110.908 93.4822C111.059 93.7556 111.329 93.9428 111.637 93.9883L124.68 95.8972C124.835 95.9198 124.97 96.0144 125.046 96.1512C125.121 96.2879 125.128 96.4519 125.065 96.5946L120.093 107.812C119.989 108.047 119.98 108.311 120.065 108.551L120.107 108.652C120.235 108.917 120.474 109.112 120.758 109.185L131.074 111.85L131.176 111.87C131.676 111.947 132.164 111.633 132.293 111.132L132.313 111.035C132.388 110.55 132.097 110.076 131.624 109.928L131.575 109.913L122.971 107.691C122.829 107.654 122.71 107.556 122.646 107.424C122.582 107.292 122.579 107.139 122.639 107.004L127.694 95.5998C127.82 95.3138 127.806 94.9846 127.655 94.711L127.593 94.6129C127.458 94.4247 127.263 94.2885 127.039 94.2285L126.924 94.2054L113.882 92.2956C113.727 92.2729 113.592 92.1796 113.517 92.0429C113.441 91.906 113.434 91.7415 113.498 91.5987L118.705 79.8504L118.748 79.7339C118.831 79.4589 118.792 79.1589 118.637 78.9123L118.564 78.8116C118.382 78.5894 118.112 78.4544 117.821 78.4457L105.537 78.0834L105.473 78.0828L105.375 78.0896Z" fill="#151413"/>
<path d="M46.1007 66.5233C46.0346 65.7325 46.6001 65.0204 47.3955 64.9132C48.1909 64.8061 48.9248 65.3431 49.0703 66.1233L49.0823 66.1994L51.6539 85.2928C51.763 86.1026 51.2036 86.8509 50.3961 86.9756L39.0277 88.7313L37.8335 98.3374L37.8221 98.4139C37.6844 99.1953 36.9565 99.7397 36.1602 99.6408C35.3381 99.5386 34.7542 98.7894 34.8564 97.9673L36.1907 87.237L36.2112 87.1133C36.3384 86.5067 36.8293 86.0354 37.4504 85.9395L48.4839 84.2355L46.1093 66.6L46.1007 66.5233Z" fill="#FF7D47"/>
<path d="M45.5951 66.3687C45.6091 65.3946 46.3343 64.5521 47.3284 64.418L47.5267 64.4011C48.5086 64.3661 49.3799 65.0559 49.562 66.0314L49.5644 66.045L49.5763 66.1222L49.5782 66.133L49.5769 66.1333L52.149 85.2259C52.2854 86.2384 51.6386 87.1786 50.6697 87.429L50.4728 87.4695L39.4758 89.168L38.3295 98.3995L38.3281 98.4116L38.3167 98.4881L38.3148 98.5011C38.1427 99.4783 37.2787 100.177 36.2965 100.152L36.0988 100.137C35.0029 100.001 34.2243 99.002 34.3606 97.9056L35.6947 87.1758L35.6972 87.155L35.7177 87.0313L35.7224 87.0108C35.8921 86.2017 36.5458 85.5734 37.3737 85.4454L47.9229 83.8165L45.6139 66.667L45.6125 66.6554L45.6036 66.5791L45.6025 66.5652L45.5951 66.3687ZM47.4623 65.4085C46.934 65.4797 46.5568 65.9517 46.5976 66.4761L46.6063 66.544L46.605 66.5442L48.9793 84.1682C49.0157 84.4381 48.8292 84.6879 48.56 84.7294L37.5269 86.4338C37.1128 86.4977 36.7859 86.8118 36.7011 87.2158L36.684 87.3192L35.3519 98.0291C35.2839 98.5769 35.6738 99.076 36.222 99.1442L36.321 99.1522C36.8085 99.1646 37.2366 98.8196 37.3267 98.337L37.3386 98.2633L38.5319 88.6697L38.5489 88.5887C38.6032 88.406 38.7581 88.2666 38.9512 88.2368L50.3196 86.481L50.4192 86.461C50.9031 86.3355 51.2265 85.8657 51.1585 85.3598L48.5869 66.2664L48.5784 66.2153L48.5561 66.119C48.4294 65.6832 48.0192 65.3834 47.5611 65.3998L47.4623 65.4085Z" fill="#151413"/>
<path d="M34.6741 62.1911C35.3277 62.6568 35.496 63.5504 35.0688 64.2192L35.0254 64.2829L34.6155 64.866C32.6275 67.7303 31.5708 69.858 31.2683 71.9156C30.9726 73.9265 31.3722 76.0661 32.7329 79.0058L33.0178 79.6048L33.0504 79.6751C33.3622 80.4047 33.0498 81.2586 32.3289 81.611C31.6078 81.9634 30.7421 81.685 30.3581 80.9904L30.3227 80.9221L30.164 80.5934C28.5547 77.2133 27.8749 74.3708 28.3002 71.479C28.7049 68.7271 30.0856 66.1278 32.1586 63.1442L32.5822 62.5425L32.6287 62.4806C33.1213 61.8585 34.0205 61.7255 34.6741 62.1911Z" fill="#2BF9FF"/>
<path d="M35.1204 61.9066C35.8115 62.5093 36.0002 63.5075 35.5879 64.3178L35.4897 64.4882L35.4828 64.5004L35.4391 64.5637L35.4345 64.5706L35.0261 65.1507L34.667 65.6755C32.9277 68.2536 32.0301 70.1694 31.7626 71.9887L31.7187 72.3434C31.5358 74.1267 31.9341 76.0889 33.188 78.7977L33.4688 79.3901L33.4716 79.394L33.5038 79.4646L33.5099 79.4782L33.5788 79.6629C33.8526 80.5297 33.5027 81.4829 32.7223 81.9643L32.5485 82.0603C31.587 82.5301 30.4324 82.159 29.9201 81.2325L29.9137 81.2202L29.8784 81.1519L29.872 81.1396L29.714 80.8111L29.7123 80.8087C28.1823 77.595 27.4537 74.8037 27.7355 71.9727L27.8054 71.4068C28.2009 68.7173 29.4873 66.1959 31.3651 63.4179L31.7481 62.8593L31.7494 62.8561L32.1734 62.2541L32.1825 62.2416L32.2294 62.1795L32.2367 62.1695L32.2381 62.1698C32.8952 61.3408 34.0926 61.1635 34.9639 61.7842L35.1204 61.9066ZM34.6959 63.8651C34.9018 63.4604 34.8078 62.9609 34.4621 62.6595L34.3842 62.5987C33.9487 62.2884 33.3492 62.3767 33.021 62.791L32.9913 62.8301L32.5691 63.4296L32.1915 63.9807C30.3467 66.7108 29.1582 69.0815 28.7949 71.5518L28.7307 72.0683C28.4728 74.6515 29.1279 77.2523 30.6142 80.3751L30.773 80.7031L30.7955 80.7482L30.8478 80.832C31.1238 81.2323 31.6588 81.3823 32.1093 81.1624L32.1959 81.114C32.614 80.8563 32.7849 80.328 32.5908 79.8725L32.5662 79.8194L32.2809 79.2206L32.2789 79.2161C30.9815 76.4133 30.5168 74.2677 30.7233 72.2457L30.7738 71.8431C31.0936 69.6685 32.2044 67.4626 34.2043 64.581L34.2061 64.5785L34.6119 64.0014L34.6472 63.95L34.6959 63.8651Z" fill="#151413"/>
<path d="M76.4204 97.839C76.5574 97.3007 76.9809 96.882 77.5207 96.751L94.0572 92.7392L86.1412 84.0887L86.0809 84.0189C85.7926 83.6622 85.6822 83.1912 85.7854 82.7409C85.8955 82.2605 86.2349 81.8649 86.6928 81.6825L98.8558 76.8378L98.9285 76.8112C99.6796 76.5554 100.507 76.9308 100.804 77.6763C101.101 78.4219 100.758 79.2639 100.037 79.5945L99.966 79.6249L89.8205 83.666L97.984 92.586C98.342 92.9772 98.4667 93.5283 98.3121 94.0356C98.1575 94.543 97.7462 94.9313 97.2308 95.0564L80.9784 98.9992L92.931 109.838C93.5446 110.395 93.5909 111.343 93.0345 111.957C92.478 112.57 91.5294 112.617 90.9157 112.06L76.8665 99.3199L76.7923 99.2478C76.435 98.8759 76.292 98.3435 76.4204 97.839Z" fill="#FFFC36"/>
<path d="M75.9362 97.7162L75.9749 97.583C76.1901 96.9298 76.7281 96.4293 77.4026 96.2655L93.1168 92.4537L85.7721 84.4264L85.7631 84.415L85.7023 84.3456L85.6925 84.3331C85.3081 83.8575 85.1608 83.2296 85.2984 82.6291L85.3667 82.3949C85.56 81.8612 85.9738 81.4309 86.5079 81.2182L98.6709 76.3735L98.6838 76.3677L98.7563 76.342L98.7669 76.3378L98.9559 76.2839C99.841 76.076 100.766 76.4959 101.187 77.3109L101.269 77.4916C101.665 78.4857 101.207 79.6077 100.245 80.0487L100.234 80.0537L100.163 80.0846L100.152 80.0896L90.6771 83.8633L98.3528 92.248C98.8003 92.7371 98.9749 93.4141 98.8251 94.054L98.7903 94.1809C98.5971 94.815 98.1034 95.3104 97.476 95.5072L97.3484 95.5426L82.0135 99.2635L93.2671 109.467C94.0341 110.163 94.1358 111.318 93.5341 112.134L93.405 112.293C92.663 113.111 91.3983 113.173 90.5802 112.431L76.5301 99.6907L76.5182 99.6788L76.4441 99.6062L76.4322 99.5944C75.9558 99.0985 75.7651 98.389 75.9362 97.7162ZM76.9052 97.9621C76.8196 98.2983 76.9148 98.6536 77.1531 98.9016L77.2015 98.9502L77.2026 98.9494L91.2518 111.69C91.6609 112.061 92.2927 112.03 92.6637 111.621L92.7292 111.541C93.0095 111.161 92.9838 110.633 92.6677 110.281L92.5946 110.209L80.6429 99.3701L80.5948 99.3196C80.4928 99.1975 80.4539 99.0323 80.4939 98.8754C80.5396 98.6962 80.6806 98.5569 80.8604 98.5132L97.1128 94.5704L97.2381 94.5307C97.5222 94.4207 97.7435 94.1856 97.8338 93.8896L97.8637 93.7619C97.9135 93.4614 97.8238 93.1513 97.615 92.9231L89.4514 84.0036L89.3816 83.905C89.3239 83.7991 89.306 83.6748 89.3334 83.5546C89.3701 83.3946 89.4827 83.2624 89.6351 83.2015L99.7685 79.1654L99.8346 79.1367C100.311 78.9145 100.537 78.3559 100.34 77.8611L100.299 77.7712C100.074 77.3348 99.5591 77.125 99.0898 77.2848L99.0404 77.3024L86.8773 82.1471C86.6104 82.2536 86.4039 82.4688 86.3073 82.735L86.273 82.8531C86.2044 83.1531 86.2779 83.4674 86.47 83.7051L86.5201 83.7618L94.426 92.4013C94.5452 92.5316 94.5867 92.7155 94.5353 92.8845C94.4838 93.0535 94.347 93.1833 94.1754 93.225L77.6384 97.2367C77.3236 97.3131 77.0677 97.5365 76.9475 97.8315L76.9052 97.9621Z" fill="#151413"/>
<path d="M137.487 62.0878C137.487 62.9162 136.815 63.5878 135.987 63.5878C135.158 63.5878 134.487 62.9162 134.487 62.0878C134.487 61.2593 135.158 60.5878 135.987 60.5878C136.815 60.5878 137.487 61.2593 137.487 62.0878Z" fill="#62FF46"/>
<path d="M136.487 62.0878C136.487 61.8116 136.263 61.5878 135.987 61.5878C135.711 61.5878 135.487 61.8116 135.487 62.0878C135.487 62.3639 135.711 62.5878 135.987 62.5878V63.5878C135.158 63.5878 134.487 62.9162 134.487 62.0878C134.487 61.2593 135.158 60.5878 135.987 60.5878C136.815 60.5878 137.487 61.2593 137.487 62.0878C137.487 62.9162 136.815 63.5878 135.987 63.5878V62.5878C136.263 62.5878 136.487 62.3639 136.487 62.0878Z" fill="#151413"/>
<path d="M115.487 80.5878C115.487 82.7969 113.696 84.5878 111.487 84.5878C109.278 84.5878 107.487 82.7969 107.487 80.5878C107.487 78.3786 109.278 76.5878 111.487 76.5878C113.696 76.5878 115.487 78.3786 115.487 80.5878Z" fill="#FFFC36"/>
<path d="M115.487 80.5878C115.487 78.3786 113.696 76.5878 111.487 76.5878C109.278 76.5878 107.487 78.3786 107.487 80.5878C107.487 82.7969 109.278 84.5878 111.487 84.5878C113.696 84.5878 115.487 82.7969 115.487 80.5878ZM116.487 80.5878C116.487 83.3492 114.248 85.5878 111.487 85.5878C108.725 85.5878 106.487 83.3492 106.487 80.5878C106.487 77.8263 108.725 75.5878 111.487 75.5878C114.248 75.5878 116.487 77.8263 116.487 80.5878Z" fill="#151413"/>
<path d="M83.4868 92.3378C83.4868 93.5804 82.4795 94.5878 81.2368 94.5878C79.9942 94.5878 78.9868 93.5804 78.9868 92.3378C78.9868 91.0951 79.9942 90.0878 81.2368 90.0878C82.4795 90.0878 83.4868 91.0951 83.4868 92.3378Z" fill="#62FF46"/>
<path d="M82.4868 92.3378C82.4868 91.6474 81.9272 91.0878 81.2368 91.0878C80.5465 91.0878 79.9868 91.6474 79.9868 92.3378C79.9868 93.0281 80.5465 93.5878 81.2368 93.5878V94.5878C79.9942 94.5878 78.9868 93.5804 78.9868 92.3378C78.9868 91.0951 79.9942 90.0878 81.2368 90.0878C82.4795 90.0878 83.4868 91.0951 83.4868 92.3378C83.4868 93.5804 82.4795 94.5878 81.2368 94.5878V93.5878C81.9272 93.5878 82.4868 93.0281 82.4868 92.3378Z" fill="#151413"/>
<path d="M105.487 92.0878C105.487 90.4309 104.144 89.0878 102.487 89.0878C100.83 89.0878 99.4868 90.4309 99.4868 92.0878C99.4868 93.7446 100.83 95.0878 102.487 95.0878C104.144 95.0878 105.487 93.7446 105.487 92.0878ZM107.487 92.0878C107.487 94.8492 105.248 97.0878 102.487 97.0878C99.7254 97.0878 97.4868 94.8492 97.4868 92.0878C97.4868 89.3263 99.7254 87.0878 102.487 87.0878C105.248 87.0878 107.487 89.3263 107.487 92.0878Z" fill="#FF7D47"/>
<path d="M106.987 92.0878C106.987 89.6025 104.972 87.5878 102.487 87.5878C100.002 87.5878 97.9868 89.6025 97.9868 92.0878C97.9868 94.573 100.002 96.5878 102.487 96.5878C104.972 96.5878 106.987 94.573 106.987 92.0878ZM104.987 92.0878C104.987 90.707 103.868 89.5878 102.487 89.5878C101.106 89.5878 99.9868 90.707 99.9868 92.0878C99.9868 93.4685 101.106 94.5878 102.487 94.5878C103.868 94.5878 104.987 93.4685 104.987 92.0878ZM105.987 92.0878C105.987 94.0208 104.42 95.5878 102.487 95.5878C100.554 95.5878 98.9868 94.0208 98.9868 92.0878C98.9868 90.1548 100.554 88.5878 102.487 88.5878C104.42 88.5878 105.987 90.1548 105.987 92.0878ZM107.987 92.0878C107.987 95.1253 105.524 97.5878 102.487 97.5878C99.4492 97.5878 96.9868 95.1253 96.9868 92.0878C96.9868 89.0502 99.4492 86.5878 102.487 86.5878C105.524 86.5878 107.987 89.0502 107.987 92.0878Z" fill="#151413"/>
<path d="M38.4494 69.1509L38.4779 69.0791C38.7865 68.348 39.6176 67.9796 40.3718 68.2538C41.1259 68.5282 41.5263 69.3446 41.2932 70.103L41.2688 70.1763L41.0899 70.6785C40.2341 73.1416 39.9452 74.8889 40.1353 76.4678C40.3242 78.036 41.0072 79.6108 42.4342 81.6854L42.7294 82.1069C43.2101 82.7815 43.0531 83.7184 42.3785 84.1992C41.7039 84.6799 40.7671 84.5228 40.2863 83.8483L39.9646 83.3889C38.396 81.1095 37.4265 79.067 37.1567 76.8267C36.8882 74.5971 37.3341 72.3445 38.2582 69.6877L38.4494 69.1509Z" fill="#FF46CE"/>
<path d="M37.7874 69.5196L37.9783 68.9832C37.9804 68.9775 37.9823 68.9713 37.9845 68.9657L38.0131 68.894L38.0172 68.8851L38.1027 68.7081C38.5362 67.909 39.4643 67.4977 40.3528 67.7252L40.5423 67.784C41.5479 68.1498 42.082 69.238 41.7712 70.2497L41.7682 70.261L41.7434 70.3341L41.7398 70.3442L41.5618 70.8438C40.77 73.123 40.4898 74.7273 40.6037 76.1298L40.6315 76.408C40.8068 77.8631 41.4403 79.3602 42.8423 81.3991L42.8435 81.3985L43.1387 81.82C43.737 82.6631 43.59 83.8116 42.8289 84.4795L42.669 84.6062C41.7696 85.2471 40.5201 85.0378 39.879 84.1383L39.8769 84.1355L39.555 83.6755L39.5529 83.6727L39.2613 83.241C37.8367 81.0932 36.9258 79.0918 36.6602 76.8861L36.6164 76.448C36.4397 74.2546 36.9094 72.0434 37.7861 69.5232L37.7874 69.5196ZM38.7303 69.8524C37.8743 72.3136 37.452 74.3736 37.6131 76.3689L37.6535 76.7665C37.9098 78.8947 38.831 80.8599 40.3764 83.1054L40.6956 83.5614C41.0167 84.0083 41.6396 84.1112 42.0883 83.7915C42.5379 83.471 42.6426 82.8468 42.3221 82.3969L42.32 82.3941L42.0249 81.9726L42.0221 81.9685L41.7582 81.5788C40.4824 79.654 39.8288 78.1031 39.6391 76.5279L39.607 76.2089C39.4775 74.6079 39.8052 72.8525 40.6176 70.5145L40.8154 69.9558L40.8398 69.8608C40.9363 69.3842 40.672 68.8955 40.2012 68.724L40.106 68.6944C39.6328 68.5734 39.136 68.8141 38.9411 69.2661L38.9145 69.3354L38.7303 69.8524Z" fill="#151413"/>
<path d="M32.9868 63.8378C32.9868 64.8043 32.2033 65.5878 31.2368 65.5878C30.2703 65.5878 29.4868 64.8043 29.4868 63.8378C29.4868 62.8713 30.2703 62.0878 31.2368 62.0878C32.2033 62.0878 32.9868 62.8713 32.9868 63.8378Z" fill="#62FF46"/>
<path d="M32.4868 63.8378C32.4868 63.1474 31.9272 62.5878 31.2368 62.5878C30.5465 62.5878 29.9868 63.1474 29.9868 63.8378C29.9868 64.5281 30.5465 65.0878 31.2368 65.0878V65.5878C30.2703 65.5878 29.4868 64.8043 29.4868 63.8378C29.4868 62.8713 30.2703 62.0878 31.2368 62.0878C32.2033 62.0878 32.9868 62.8713 32.9868 63.8378C32.9868 64.8043 32.2033 65.5878 31.2368 65.5878V65.0878C31.9272 65.0878 32.4868 64.5281 32.4868 63.8378Z" fill="#151413"/>
<path d="M63.7986 78.2075C64.5373 77.8939 65.3866 78.2179 65.7333 78.9317L65.7655 79.002L65.9787 79.5172C67.0085 82.0713 67.4698 84.2928 67.0377 86.5361C66.5821 88.901 65.18 91.0379 63.0468 93.4621C62.4995 94.084 61.5517 94.1444 60.9298 93.5972C60.3079 93.0499 60.2475 92.102 60.7947 91.4801C62.8294 89.1678 63.7915 87.5284 64.0919 85.9687C64.3686 84.5327 64.1253 82.9443 63.1989 80.6442L63.0041 80.1744L62.9759 80.1027C62.7031 79.3575 63.0599 78.5212 63.7986 78.2075Z" fill="#FFFC36"/>
<path d="M63.7893 77.6788C64.6646 77.4046 65.6135 77.7658 66.0887 78.5409L66.1833 78.7131L66.188 78.7235L66.2199 78.7942L66.2272 78.8111L66.4408 79.3266L66.4421 79.3299L66.6324 79.8139C67.5477 82.2168 67.9584 84.4011 67.5291 86.6304L67.4268 87.0963C66.8979 89.2541 65.6231 91.222 63.8168 93.337L63.4227 93.7924C62.7385 94.5698 61.5842 94.6892 60.7594 94.0996L60.5993 93.9723C59.7703 93.2426 59.6901 91.9793 60.4195 91.1502L60.7846 90.7283C62.429 88.7997 63.2326 87.4066 63.5418 86.1429L63.6007 85.8738C63.8511 84.5735 63.6452 83.0914 62.7372 80.8356L62.5418 80.3659L62.5389 80.358L62.5103 80.286L62.5062 80.2748C62.1422 79.2808 62.6181 78.1656 63.6031 77.7472L63.7893 77.6788ZM65.2367 79.0645C64.9994 78.6771 64.5249 78.4968 64.0874 78.6337L63.994 78.6676C63.5018 78.8767 63.2641 79.4341 63.4456 79.9304L63.4656 79.9822L63.6605 80.4527L63.6628 80.4579L63.8315 80.8889C64.6382 83.0102 64.8667 84.5908 64.5831 86.0634L64.5134 86.3808C64.1493 87.8683 63.2274 89.4051 61.5426 91.3801L61.1706 91.8104C60.8057 92.225 60.8456 92.857 61.2602 93.2218L61.3399 93.2852C61.7522 93.5801 62.3295 93.5208 62.6716 93.1322L63.0588 92.6852C64.8247 90.6168 65.9819 88.7922 66.4558 86.8575L66.5462 86.4416C66.952 84.3344 66.5284 82.2195 65.5167 79.709L65.3031 79.1935L65.2832 79.1501L65.2367 79.0645Z" fill="#151413"/>
<path d="M50.4553 96.5361C50.724 97.3197 50.3064 98.1732 49.5228 98.4419C48.7392 98.7106 47.8858 98.293 47.617 97.5094C45.3363 90.8587 44.2199 85.6169 44.5563 80.5231C44.8939 75.4125 46.683 70.6074 49.9259 64.8043C50.33 64.0811 51.2439 63.8225 51.9671 64.2266C52.6903 64.6307 52.9489 65.5446 52.5448 66.2678C49.4134 71.8713 47.8467 76.2297 47.55 80.7208C47.2522 85.2288 48.2231 90.0271 50.4553 96.5361Z" fill="#2BF9FF"/>
<path d="M50.9847 96.5703C51.2151 97.5576 50.6647 98.5789 49.685 98.9148L49.4888 98.9714C48.5673 99.1866 47.6165 98.7212 47.2206 97.8619L47.1442 97.6718C44.9269 91.2061 43.7871 86.0152 44.0298 80.9773L44.0579 80.49C44.3808 75.6022 46.0052 71.0079 48.8943 65.6439L49.4896 64.5606C49.9947 63.6568 51.0967 63.2972 52.027 63.6995L52.211 63.7905C53.1751 64.3293 53.5199 65.5476 52.9811 66.5118L52.4161 67.5411C49.6821 72.6176 48.3203 76.6398 48.0485 80.7535L48.0089 81.5848C47.881 85.7615 48.843 90.2939 50.9281 96.374L50.9847 96.5703ZM49.3605 97.9692C49.8503 97.8013 50.1253 97.2905 50.0103 96.7969L49.9825 96.6985C47.8122 90.37 46.8099 85.5996 47.026 81.1203L47.0509 80.6877C47.3354 76.3805 48.7626 72.215 51.5353 67.0667L52.1086 66.024C52.378 65.5419 52.2053 64.9324 51.7232 64.663L51.6315 64.6179C51.1663 64.4165 50.6148 64.5963 50.3621 65.0483L49.7751 66.1183C46.9247 71.4104 45.3657 75.8616 45.0556 80.5559L45.0288 81.0253C44.795 85.8769 45.8882 90.9275 48.0898 97.3473L48.1281 97.4417C48.3259 97.8717 48.8013 98.1045 49.2621 97.9971L49.3605 97.9692Z" fill="#151413"/>
<path d="M41.4868 74.3378C41.4868 75.5804 40.4795 76.5878 39.2368 76.5878C37.9942 76.5878 36.9868 75.5804 36.9868 74.3378C36.9868 73.0951 37.9942 72.0878 39.2368 72.0878C40.4795 72.0878 41.4868 73.0951 41.4868 74.3378Z" fill="#9780FF"/>
<path d="M41.4868 74.3378C41.4868 73.0951 40.4795 72.0878 39.2368 72.0878C37.9942 72.0878 36.9868 73.0951 36.9868 74.3378C36.9868 75.5804 37.9942 76.5878 39.2368 76.5878C40.4795 76.5878 41.4868 75.5804 41.4868 74.3378ZM42.4868 74.3378C42.4868 76.1327 41.0317 77.5878 39.2368 77.5878C37.4419 77.5878 35.9868 76.1327 35.9868 74.3378C35.9868 72.5428 37.4419 71.0878 39.2368 71.0878C41.0317 71.0878 42.4868 72.5428 42.4868 74.3378Z" fill="black"/>
<path d="M154.625 48.6742L96.8225 81.0221V158.588L145.992 116.501L154.625 48.6742Z" fill="#3B3A38"/>
<path d="M154.904 48.2601C154.747 48.1546 154.545 48.1455 154.38 48.2376L96.5786 80.5863L97.0669 81.4583L154.003 49.5941L145.521 116.245L96.4976 158.208L96.8225 158.588L97.1479 158.967L146.317 116.88C146.411 116.8 146.472 116.687 146.488 116.564L155.121 48.7376C155.144 48.5504 155.06 48.3657 154.904 48.2601Z" fill="#151413"/>
<path d="M8.99366 54.9351L96.8225 81.0221V158.588L13.1224 122.414L8.99366 54.9351Z" fill="#333230"/>
<path d="M96.3228 146.066V134.24C96.3228 133.964 96.5466 133.74 96.8228 133.74C97.0988 133.74 97.3227 133.964 97.3228 134.24V146.066C97.3228 146.342 97.0988 146.566 96.8228 146.566C96.5466 146.566 96.3228 146.342 96.3228 146.066ZM96.3228 124.501V117.544C96.3228 117.268 96.5466 117.044 96.8228 117.044C97.0988 117.045 97.3228 117.268 97.3228 117.544V124.501C97.3228 124.777 97.0988 125 96.8228 125.001C96.5466 125.001 96.3228 124.777 96.3228 124.501ZM96.3228 105.37V81.395L9.53565 55.6177L13.6021 122.076L96.3228 157.826V151.631C96.3228 151.355 96.5466 151.131 96.8228 151.131C97.0988 151.131 97.3228 151.355 97.3228 151.631V158.587C97.3228 158.756 97.2378 158.913 97.0972 159.005C96.9565 159.098 96.779 159.113 96.6245 159.046L12.9243 122.873C12.7514 122.798 12.635 122.632 12.6235 122.444L8.49463 54.9653C8.48476 54.8026 8.55454 54.645 8.68213 54.5435C8.80989 54.4419 8.97979 54.4091 9.13623 54.4556L96.9653 80.5425C97.1773 80.6056 97.3227 80.8008 97.3228 81.022V105.37C97.3228 105.646 97.0988 105.87 96.8228 105.87C96.5466 105.87 96.3228 105.646 96.3228 105.37Z" fill="#151413"/>
<path d="M43.5245 64.6743C43.1408 93.8445 43.3958 108.01 45.1979 136.873C51.5718 140.5 55.2315 142.177 61.916 144.675C60.8349 114.994 60.3085 99.5317 61.273 69.5438C55.5353 66.0656 50.2806 64.6743 43.5245 64.6743Z" fill="#E3A849"/>
<path d="M43.5249 64.1743C50.3674 64.1743 55.7121 65.5887 61.5317 69.1166C61.6861 69.2102 61.7788 69.3795 61.773 69.56C60.809 99.5303 61.3345 114.979 62.4155 144.657C62.4215 144.824 62.344 144.983 62.2085 145.081C62.073 145.178 61.8972 145.201 61.7407 145.143C55.0327 142.637 51.3489 140.948 44.9507 137.307C44.8042 137.224 44.7092 137.072 44.6987 136.904C42.8958 108.027 42.6411 93.8486 43.0249 64.6674L43.0356 64.5678C43.0845 64.3425 43.2855 64.1743 43.5249 64.1743ZM44.0181 65.1772C43.6452 93.9107 43.9045 108.068 45.6802 136.571C51.6614 139.965 55.2472 141.625 61.3892 143.942C60.33 114.843 59.8201 99.3812 60.7642 69.8217C55.3456 66.5868 50.3534 65.2428 44.0181 65.1772Z" fill="#151413"/>
<path d="M124.598 65.3699C124.551 94.5486 122.415 112.111 120.094 142.588C124.282 139.362 126.795 137.083 131.729 131.805C135.642 102.66 139.242 86.386 138.485 57.022C132.935 59.5509 129.896 61.3384 124.598 65.3699Z" fill="#E3A849"/>
<path d="M138.985 57.0093C139.744 86.4246 136.134 102.755 132.225 131.872L132.203 132.03L132.095 132.146C127.146 137.44 124.613 139.738 120.398 142.984L119.51 143.669L119.595 142.549L120.028 136.978C122.177 109.819 124.054 92.7008 124.098 65.3687L124.099 65.1216L124.295 64.9722C129.622 60.9184 132.694 59.1113 138.278 56.567L138.966 56.2535L138.985 57.0093ZM138.001 57.7945C132.982 60.1146 130.022 61.8831 125.096 65.6197C125.038 94.3113 122.96 111.812 120.68 141.494C124.3 138.655 126.766 136.373 131.255 131.578C135.129 102.759 138.674 86.5762 138.001 57.7945Z" fill="#151413"/>
<path d="M85.6193 112.915C85.6514 112.927 85.6839 112.941 85.7159 112.955C86.9474 113.647 87.1879 115.227 86.8693 116.428C86.638 117.538 85.6563 118.716 84.3535 118.51C84.1654 118.478 83.9873 118.396 83.831 118.289C82.5359 117.288 82.4811 115.398 83.1908 114.107C83.5738 113.245 84.6233 112.539 85.6193 112.915ZM91.1514 114.992C91.9588 115.307 92.3072 116.324 92.1673 117.11C91.9066 118.673 90.545 120.238 88.7739 120.118C88.6125 120.095 88.4561 120.041 88.3126 119.964C87.2919 119.398 87.2536 118.075 87.6385 117.158C88.119 115.939 89.3086 114.76 90.7776 114.902C90.9116 114.916 91.036 114.947 91.1514 114.992ZM80.5369 115.839C81.9165 116.432 82.3956 118.122 82.0787 119.421C81.9373 120.39 80.9941 121.412 79.8877 121.091C78.3879 120.525 77.9178 118.62 78.3547 117.286C78.5766 116.379 79.5012 115.517 80.5369 115.839ZM92.7602 120.623C93.3614 120.836 93.8265 121.392 93.8114 122.043C93.7695 123.785 92.0052 125.368 90.1604 125.066C89.3972 124.921 88.9558 124.164 89.0077 123.466C89.1222 121.972 90.4724 120.682 92.0122 120.545C92.2682 120.508 92.525 120.539 92.7602 120.623ZM85.4321 121.107C86.6063 121.537 87.5933 122.539 88.0467 123.66C88.5102 124.944 88.7665 126.335 88.5777 127.674C88.5721 128.685 87.4724 129.451 86.4655 129.091C85.2452 128.684 84.4938 127.516 83.3133 127.02C82.3475 126.501 81.2507 126.674 80.2138 126.67C79.3176 126.704 78.2833 126.19 78.1757 125.245C78.1588 124.316 78.9364 123.615 79.5819 123.03C80.7889 122.139 82.0733 121.208 83.6183 120.94C84.2406 120.824 84.8587 120.897 85.4321 121.107Z" fill="#E3A849"/>
<path d="M85.2152 121.034C84.7042 120.881 84.1629 120.838 83.6183 120.94C82.0733 121.208 80.7889 122.139 79.5819 123.03C78.9364 123.615 78.1588 124.316 78.1757 125.245L78.2063 125.418C78.4121 126.252 79.3737 126.702 80.2138 126.67C81.2507 126.674 82.3475 126.501 83.3133 127.02L83.5302 127.12C84.5898 127.658 85.3215 128.709 86.4655 129.091C87.4724 129.451 88.5721 128.685 88.5777 127.674C88.7665 126.335 88.5102 124.944 88.0467 123.66C87.5933 122.539 86.6063 121.537 85.4321 121.107L85.2152 121.034ZM85.4523 121.654C86.3976 122.065 87.1955 122.902 87.5764 123.831L87.733 124.297C88.0743 125.392 88.2344 126.526 88.0824 127.604L88.0775 127.637L88.0778 127.671C88.0742 128.321 87.3316 128.87 86.6337 128.621L86.6236 128.617L86.4365 128.546C86.0062 128.363 85.6252 128.062 85.1937 127.703C84.725 127.314 84.1846 126.845 83.516 126.562C82.951 126.267 82.364 126.175 81.8114 126.152C81.5303 126.14 81.2508 126.146 80.9855 126.154L80.2155 126.171L80.2053 126.17L80.1948 126.171C79.8411 126.184 79.4594 126.087 79.166 125.902C78.8854 125.725 78.7165 125.489 78.6775 125.211C78.6788 124.906 78.8025 124.614 79.0307 124.309C79.2669 123.993 79.5808 123.708 79.9065 123.413C81.118 122.518 82.3037 121.676 83.7039 121.432L83.7095 121.431C84.2336 121.334 84.7608 121.394 85.2601 121.577L85.4523 121.654ZM92.5804 120.57C92.3968 120.528 92.2043 120.518 92.0122 120.545C90.4724 120.682 89.1222 121.972 89.0077 123.466L89.0038 123.597C89.0118 124.213 89.3892 124.84 90.021 125.032L90.1604 125.066C91.9476 125.359 93.6595 123.882 93.8028 122.206L93.8114 122.043C93.8265 121.392 93.3614 120.836 92.7602 120.623L92.5804 120.57ZM80.5369 115.839C79.5012 115.517 78.5766 116.379 78.3547 117.286C77.9178 118.62 78.3879 120.525 79.8877 121.091L80.0926 121.136C81.1085 121.285 81.946 120.33 82.0787 119.421C82.3956 118.122 81.9165 116.432 80.5369 115.839ZM92.7506 121.162C93.0496 121.32 93.2543 121.592 93.3015 121.884L93.3114 122.031C93.2943 122.738 92.9243 123.442 92.3387 123.94C91.7566 124.435 91.0004 124.694 90.2473 124.573C89.7887 124.482 89.4701 124.002 89.5065 123.504L89.5359 123.275C89.7438 122.138 90.8224 121.152 92.0563 121.043L92.0699 121.043L92.0832 121.04C92.2538 121.016 92.4288 121.035 92.5927 121.093L92.7506 121.162ZM80.364 116.311C81.4281 116.786 81.8708 118.163 81.5928 119.303L81.5875 119.326L81.5841 119.35C81.5309 119.713 81.3201 120.102 81.0188 120.361C80.7318 120.607 80.3972 120.71 80.0462 120.615C79.4752 120.393 79.0784 119.913 78.8672 119.311C78.6519 118.697 78.6464 118 78.8294 117.441L78.836 117.423L78.8405 117.405L78.878 117.276C78.9806 116.979 79.1823 116.694 79.4387 116.503C79.7164 116.297 80.0339 116.217 80.364 116.311ZM90.9717 114.935C90.9094 114.92 90.8446 114.909 90.7776 114.902C89.3086 114.76 88.119 115.939 87.6385 117.158C87.2536 118.075 87.2919 119.398 88.3126 119.964L88.4224 120.017C88.4972 120.049 88.5746 120.076 88.6538 120.095L88.7739 120.118C90.545 120.238 91.9066 118.673 92.1673 117.11C92.3072 116.324 91.9588 115.307 91.1514 114.992L90.9717 114.935ZM85.4322 112.857C84.4948 112.628 83.5499 113.299 83.1908 114.107C82.4811 115.398 82.5359 117.288 83.831 118.289L83.9523 118.365C84.0355 118.411 84.1237 118.449 84.2149 118.477L84.3535 118.51C85.6563 118.716 86.638 117.538 86.8693 116.428C87.1879 115.227 86.9474 113.647 85.7159 112.955C85.6839 112.941 85.6514 112.927 85.6193 112.915L85.4322 112.857ZM91.0614 115.499C91.2701 115.611 91.4412 115.809 91.5562 116.073C91.6719 116.339 91.7161 116.642 91.6904 116.91L91.6752 117.023L91.6745 117.028C91.4426 118.418 90.2559 119.699 88.8366 119.621C88.74 119.606 88.6434 119.574 88.5525 119.525C88.2029 119.33 88.0105 119.006 87.9417 118.607C87.8709 118.197 87.9389 117.734 88.0994 117.351L88.104 117.342C88.5427 116.228 89.5753 115.289 90.7295 115.401C90.8183 115.41 90.8979 115.43 90.9696 115.458L91.0614 115.499ZM85.4864 113.4C86.4188 113.935 86.675 115.21 86.3859 116.3L86.3825 116.312L86.3797 116.326C86.2836 116.787 86.0286 117.264 85.672 117.597C85.3229 117.922 84.9015 118.09 84.4335 118.016C84.3353 117.998 84.2305 117.953 84.1263 117.883C83.0966 117.077 82.9994 115.492 83.6287 114.347L83.6394 114.329L83.6473 114.31C83.7938 113.981 84.0755 113.671 84.4148 113.486C84.7485 113.304 85.1072 113.256 85.4427 113.383L85.4864 113.4Z" fill="#151413"/>
<path d="M7.47074 39.9459C4.60527 47.7055 3.97558 52.2549 4.925 60.7391L103.378 85.6543L156.617 62.1793C159.228 54.6052 159.224 48.2481 158.945 40.6792L102.791 63.6142L7.47074 39.9459Z" fill="#3B3A38"/>
<path d="M158.876 40.1849C158.994 40.1673 159.115 40.1926 159.218 40.2579C159.354 40.3452 159.439 40.4936 159.445 40.6558C159.724 48.2348 159.733 54.6705 157.089 62.3375C157.043 62.4707 156.944 62.5796 156.815 62.6365L103.576 86.1113C103.473 86.1565 103.359 86.1658 103.251 86.1386L4.79752 61.2233C4.59791 61.1728 4.45071 61.0049 4.42765 60.8003C3.95052 56.5366 3.86705 53.2351 4.27067 50.0139C4.67426 46.793 5.56222 43.6752 7.00172 39.7771L7.04218 39.6917C7.1545 39.5046 7.37892 39.4073 7.59637 39.4613L102.757 63.089L158.759 40.2165L158.876 40.1849ZM102.976 64.0769C102.877 64.1172 102.768 64.1244 102.665 64.0988L7.78572 40.5399C6.45267 44.201 5.63911 47.1278 5.26325 50.1272C4.88353 53.1577 4.94779 56.2842 5.3865 60.3386L103.34 85.1267L156.213 61.8125C158.642 54.6567 158.717 48.5876 158.468 41.411L102.976 64.0769Z" fill="#151413"/>
<path d="M51.58 21.8325L7.47074 39.9459L103.161 63.3912L158.185 40.3515L51.58 21.8325Z" fill="#4C4942"/>
<path d="M51.6703 21.3396L158.65 39.8491L158.729 39.8698C158.908 39.932 159.037 40.0917 159.058 40.2844C159.081 40.5043 158.956 40.7143 158.751 40.801L103.36 64.199C103.26 64.2412 103.149 64.2498 103.044 64.2237L7.34516 40.4312C7.13611 40.3791 6.98536 40.1978 6.97168 39.9826C6.9582 39.7674 7.08465 39.5661 7.28514 39.4838L51.394 21.3708L51.4616 21.348C51.5297 21.3307 51.6009 21.3276 51.6703 21.3396ZM9.07088 39.8267L103.133 63.2137L156.798 40.5444L51.6304 22.3495L9.07088 39.8267Z" fill="#151413"/>
<path d="M43.016 72.3015C42.8533 63.487 43.0671 56.6468 45.0214 48.9353C53.6546 43.4464 59.0135 42.8055 68.877 38.6645C52.0121 36.2459 39.0352 34.6937 22.0828 33.541C25.741 31.2139 29.725 29.5497 34.7007 27.9854C49.4556 29.1587 57.3725 33.1698 72.1054 36.7309L70.285 38.8672C70.1151 38.8426 69.9455 38.8182 69.7763 38.7938L73.3237 40.178C68.6775 44.7198 66.1161 47.2931 62.7672 52.6377C61.3181 59.6742 61.4169 65.3785 61.0999 74.603C53.9077 75.9567 49.9004 75.6218 43.016 72.3015Z" fill="#E3A849"/>
<path d="M142.051 68.9656C138.199 71.8729 134.62 72.7765 130.175 74.1535C132.355 55.3679 128.613 55.8437 126.626 53.719L126.088 53.5364C104.42 46.1839 97.16 43.7203 76.3254 40.0979L81.4948 36.8286C105.292 39.2101 115.055 42.1971 139.253 48.5111C142.348 51.9081 143.429 58.3038 142.051 68.9656Z" fill="#E3A849"/>
<path d="M81.5444 36.3309C102.406 38.4186 112.516 40.9748 130.926 45.8104L139.38 48.0273L139.448 48.0509C139.514 48.0789 139.574 48.1205 139.623 48.1742C141.258 49.9696 142.33 52.5234 142.824 55.9422C143.318 59.3601 143.239 63.6742 142.547 69.0294C142.53 69.1628 142.46 69.2839 142.353 69.3648C138.416 72.3357 134.742 73.2626 130.323 74.6316C130.161 74.6816 129.985 74.6464 129.855 74.5386C129.725 74.4306 129.659 74.2638 129.678 74.0958C130.768 64.7089 130.361 60.2349 129.494 57.8596C129.068 56.6946 128.53 56.0336 127.987 55.5347C127.706 55.2772 127.425 55.0632 127.129 54.8298C126.871 54.6268 126.606 54.4081 126.356 54.1548L125.928 54.0099C104.268 46.6603 97.0364 44.2066 76.24 40.591C76.0364 40.5555 75.8751 40.3981 75.8348 40.1954C75.7946 39.9926 75.8836 39.786 76.0584 39.6755L81.228 36.4058L81.3012 36.3677C81.3776 36.3356 81.4611 36.3226 81.5444 36.3309ZM34.7404 27.4871C42.1603 28.0771 47.8622 29.3812 53.5472 30.9813C59.2413 32.584 64.866 34.4672 72.2224 36.2453C72.3913 36.2861 72.5273 36.4114 72.581 36.5767C72.6345 36.7417 72.5987 36.9228 72.4863 37.055L71.0407 38.7503L73.5057 39.7123C73.6638 39.7741 73.7795 39.912 73.8134 40.0783C73.8473 40.2446 73.7946 40.4166 73.6732 40.5353C69.0564 45.0484 66.5322 47.5854 63.2401 52.8245C61.8205 59.7683 61.9163 65.405 61.5997 74.6201C61.5916 74.854 61.4222 75.0508 61.1922 75.094C57.5744 75.7749 54.717 76.0399 51.8828 75.7017C49.0471 75.3632 46.2689 74.4257 42.7991 72.7523C42.6292 72.6703 42.5192 72.4991 42.5157 72.3105C42.3528 63.4839 42.5658 56.5901 44.5367 48.8127L44.5685 48.723C44.6086 48.6376 44.6728 48.5642 44.7534 48.5129C49.1071 45.7449 52.6387 44.1982 56.313 42.8259C59.5596 41.6133 62.8723 40.5513 66.9847 38.9005C52.039 36.7781 40.023 35.3452 25.1802 34.2608L22.0492 34.0395C21.8337 34.0249 21.652 33.8739 21.5986 33.6647C21.5453 33.4553 21.6323 33.2346 21.8146 33.1187C25.5226 30.76 29.5512 29.0805 34.5505 27.5088L34.6447 27.4887C34.6764 27.4851 34.7085 27.4845 34.7404 27.4871ZM77.6822 39.8315C97.5891 43.3417 105.019 45.8587 126.248 53.0626L126.787 53.2456L126.844 53.2685C126.899 53.2952 126.949 53.3327 126.991 53.3779L127.162 53.5492C127.339 53.7167 127.533 53.8742 127.748 54.0435C128.028 54.2641 128.348 54.5085 128.664 54.7986C129.313 55.3951 129.947 56.1876 130.433 57.5171C131.362 60.0603 131.738 64.5588 130.754 73.4527C134.816 72.2089 138.083 71.2825 141.581 68.6908C142.242 63.4835 142.304 59.3367 141.834 56.0858C141.369 52.8644 140.385 50.5536 138.977 48.9553C114.942 42.6822 105.195 39.7123 81.6154 37.343L77.6822 39.8315ZM68.94 39.1785C64.0607 41.2201 60.2524 42.4223 56.6624 43.7632C53.0809 45.1009 49.66 46.5972 45.4579 49.2512C43.5878 56.7283 43.36 63.4038 43.5102 71.9821C46.7929 73.5442 49.388 74.397 52.0019 74.7089C54.5907 75.0178 57.229 74.7984 60.612 74.1814C60.9117 65.2197 60.8385 59.522 62.277 52.5366L62.3031 52.4519C62.3142 52.4242 62.3281 52.397 62.344 52.3717L62.9694 51.3918C65.925 46.8466 68.392 44.309 72.4211 40.3626L69.6491 39.2808C69.4119 39.2466 69.1756 39.2123 68.94 39.1785ZM34.7564 28.4919C30.4499 29.8504 26.9096 31.2806 23.6843 33.1519C39.8493 34.2911 52.5275 35.8158 68.811 38.1494C68.8589 38.1292 68.9069 38.1092 68.955 38.0889L69.048 38.06C69.1422 38.0404 69.2409 38.0482 69.3319 38.0837L69.9025 38.3059C69.9629 38.3146 70.0234 38.3236 70.0839 38.3323L71.1998 37.0218C64.2028 35.2952 58.7094 33.4733 53.2759 31.944C47.655 30.3618 42.0448 29.0787 34.7564 28.4919Z" fill="#151413"/>
<path d="M103.343 78.3601C103.594 78.3624 103.799 78.529 103.844 78.7483L103.853 78.8456L103.788 82.636C103.783 82.9015 103.548 83.1152 103.262 83.1128C102.975 83.1103 102.747 82.8928 102.752 82.6273L102.816 78.8363L102.828 78.7394C102.881 78.5209 103.093 78.358 103.343 78.3601ZM103.187 64.9974C103.437 64.9913 103.65 65.1506 103.703 65.3682L103.715 65.4654L103.938 75.4816C103.944 75.7469 103.717 75.9681 103.431 75.9754C103.144 75.9826 102.907 75.7734 102.901 75.5081L102.678 65.4906L102.687 65.3945C102.73 65.1741 102.936 65.0038 103.187 64.9974Z" fill="black"/>
<path d="M96.5855 23.0654C103.611 19.4977 110.831 17.6444 116.629 19.136C119.401 19.849 121.894 20.7237 124.196 21.5767C126.514 22.4358 128.6 23.2577 130.639 23.9039C134.673 25.1828 138.339 25.7096 142.557 24.2899C143.089 24.1112 143.662 24.404 143.838 24.944C144.014 25.484 143.727 26.0664 143.196 26.2452C138.415 27.8539 134.278 27.2145 130.037 25.8701C127.938 25.2046 125.767 24.3509 123.503 23.5118C121.223 22.6667 118.806 21.8203 116.134 21.1329C111.044 19.8236 104.37 21.4161 97.4933 24.9082C90.6548 28.3812 83.7939 33.6447 78.4112 39.394C78.0255 39.8059 77.3842 39.8218 76.9786 39.4295C76.573 39.0372 76.5568 38.3853 76.9424 37.9734C82.4751 32.0639 89.5226 26.6524 96.5855 23.0654Z" fill="#E3A849"/>
<path d="M97.0215 22.2888C103.879 18.9171 110.965 17.1622 116.754 18.6513L117.79 18.9285C120.176 19.5909 122.35 20.3594 124.369 21.1075L127.695 22.3513C128.756 22.743 129.778 23.1068 130.789 23.4275L131.531 23.6548C135.218 24.7449 138.575 25.103 142.398 23.8165L142.549 23.7734C143.303 23.6034 144.069 24.0414 144.313 24.7892L144.354 24.9386C144.508 25.6396 144.155 26.3642 143.5 26.6622L143.355 26.7188C138.742 28.2714 134.713 27.7818 130.69 26.5933L129.885 26.3471C128.828 26.012 127.752 25.6281 126.659 25.2247L123.33 23.9809C121.339 23.2432 119.254 22.508 116.99 21.8796L116.009 21.6175C111.25 20.3934 104.966 21.788 98.3598 25.0344L97.7197 25.3543C91.1489 28.6913 84.5478 33.7008 79.2814 39.2021L78.7759 39.7353C78.2354 40.3125 77.3565 40.3699 76.7491 39.8919L76.631 39.7886C76.0294 39.2065 76.0055 38.2432 76.5774 37.632L77.1038 37.0758C82.59 31.3445 89.4629 26.1224 96.3592 22.62L97.0215 22.2888ZM116.505 19.6202C111.06 18.2195 104.242 19.8534 97.4674 23.1835L96.8119 23.5116C90.0236 26.9592 83.2406 32.111 77.8266 37.7667L77.3078 38.3149C77.109 38.5273 77.1164 38.867 77.325 39.0696C77.5299 39.2677 77.8518 39.2603 78.0465 39.0523L78.5586 38.5112C83.8973 32.9343 90.5882 27.8546 97.2671 24.4627L97.9149 24.1387C104.604 20.851 111.155 19.3361 116.258 20.6487L117.258 20.9161C119.562 21.5558 121.677 22.3015 123.677 23.0426L127.005 24.2874C128.088 24.6869 129.146 25.0631 130.188 25.3934L130.971 25.6334C134.882 26.7891 138.686 27.2347 143.036 25.7709L143.131 25.7283C143.307 25.6249 143.411 25.42 143.386 25.2067L143.363 25.0989C143.282 24.8522 143.048 24.7133 142.816 24.7412L142.717 24.7634C138.63 26.1388 135.049 25.7377 131.25 24.6148L130.488 24.3802C129.461 24.0547 128.421 23.6852 127.349 23.2896L124.022 22.0458C122.012 21.3011 119.868 20.5431 117.523 19.892L116.505 19.6202Z" fill="#151413"/>
<path d="M35.2758 20.6747C43.544 18.9676 51.0249 18.8502 57.6231 21.3667C64.0378 23.8132 69.5322 28.7164 74.0855 36.8509L74.5234 37.6482L74.5687 37.7431C74.7721 38.2281 74.6191 38.8364 74.2011 39.1449C73.783 39.4535 73.2481 39.3527 72.9621 38.9285L72.9081 38.8399L72.4886 38.0745C68.1238 30.2756 62.9365 25.6994 56.9603 23.4201C50.7679 21.0584 43.6364 21.1277 35.5314 22.8011C27.7788 24.4019 22.504 31.8799 17.5685 39.2892C15.1463 42.9255 12.7904 46.5603 10.3069 49.2044C7.88557 51.7824 5.20759 53.5662 2.07404 53.4345L1.76933 53.4162C1.25245 53.3743 0.881068 52.8576 0.939729 52.2624C0.998497 51.6672 1.46521 51.2186 1.98216 51.2605L2.21665 51.2746C4.63024 51.3775 6.81881 50.0336 9.05739 47.6502C11.3844 45.1727 13.6189 41.7322 16.089 38.0241C20.938 30.7446 26.6552 22.4545 35.2758 20.6747Z" fill="#E3A849"/>
<path d="M35.9597 20.0292C43.9725 18.4627 51.2971 18.417 57.8085 20.9002L58.4195 21.1418C64.4982 23.6289 69.7241 28.3314 74.0904 35.8418L74.5236 36.6019L74.5262 36.605L74.9636 37.4026L74.9759 37.4271L75.0215 37.5219L75.031 37.5443L75.0791 37.6735C75.2755 38.2862 75.103 39.0102 74.6061 39.4534L74.4951 39.5443C73.8762 40.001 73.0866 39.8766 72.6317 39.3276L72.545 39.2118C72.5409 39.2057 72.5369 39.1995 72.5331 39.1932L72.479 39.1046L72.4682 39.0851L72.05 38.3224C67.8634 30.8419 62.9396 26.3998 57.3207 24.1022L56.7739 23.8865C50.8945 21.6443 44.1188 21.6257 36.3768 23.139L35.6251 23.2896C31.8853 24.0618 28.7153 26.2565 25.851 29.2105C23.3416 31.7986 21.0912 34.9433 18.9133 38.1729L17.9846 39.5602C15.7242 42.9536 13.4875 46.3995 11.1403 49.0277L10.6696 49.5421C8.21295 52.1576 5.39982 54.0739 2.04443 53.9329L2.03557 53.9332L1.73033 53.9143L1.7206 53.9135C0.917462 53.8484 0.426461 53.1225 0.433423 52.372L0.441385 52.2218C0.520248 51.4241 1.16956 50.6992 2.02096 50.7619L2.24628 50.7753L2.45175 50.7812C4.56696 50.7929 6.56087 49.5841 8.69494 47.312L9.1228 46.8442C11.2616 44.4482 13.3464 41.245 15.6729 37.7525L16.5936 36.3773C18.7693 33.1449 21.1548 29.7811 23.9114 26.9432C27.0648 23.6966 30.7358 21.1036 35.1819 20.1855L35.9597 20.0292ZM1.43627 52.4406C1.45918 52.7412 1.66217 52.9036 1.817 52.9172L2.10365 52.9355L2.37578 52.9419C5.17428 52.9538 7.63315 51.327 9.94457 48.8661L10.4021 48.3664C12.6828 45.812 14.872 42.4421 17.1531 39.0176L18.0831 37.6285C20.2682 34.3877 22.5629 31.1783 25.1368 28.5237C28.0818 25.4864 31.4252 23.141 35.438 22.3125L36.1997 22.1597C44.0433 20.6265 51.0282 20.6203 57.1466 22.9537L57.7161 23.1782C63.3914 25.4993 68.3287 29.9003 72.5114 37.097L72.9272 37.8253L72.9287 37.8293L73.3378 38.5757L73.3817 38.6478C73.5185 38.8479 73.7326 38.8746 73.9078 38.7453L73.9832 38.677C74.1455 38.4988 74.2122 38.1961 74.1057 37.9424L74.0772 37.8833L73.6474 37.099C69.2781 29.2931 64.0599 24.534 58.0242 22.0649L57.4368 21.8331C51.1644 19.441 44.0488 19.4631 36.1377 21.0095L35.3689 21.1637C31.1948 22.0256 27.6968 24.4678 24.6245 27.6309C21.9334 30.4015 19.5929 33.6988 17.424 36.9207L16.5043 38.295C14.1994 41.7553 12.0672 45.0347 9.86215 47.5046L9.42 47.988C7.14586 50.4092 4.82216 51.8859 2.18697 51.7736L2.17821 51.7729L1.94315 51.7587L1.93341 51.758C1.7561 51.7436 1.47665 51.9133 1.43811 52.3026L1.43627 52.4406Z" fill="#151413"/>
<path d="M49.7467 1.98526C51.0303 1.41603 52.5516 1.29669 54.1409 1.51474C57.3078 1.94928 61.0145 3.75589 64.4835 6.70024C70.7586 12.0263 76.4763 21.255 77.0821 33.7628C82.1853 24.795 86.5662 18.0898 90.3156 13.8861C92.4342 11.5108 94.4439 9.82552 96.3662 9.03491C97.3458 8.632 98.3398 8.44662 99.3256 8.55234C100.318 8.65884 101.218 9.05203 102.015 9.67878C103.817 11.096 103.962 13.3299 103.266 15.6068C102.563 17.9087 100.93 20.5666 98.6313 23.3051C95.6004 26.9151 91.3215 30.7708 86.1928 34.2716C99.0074 30.1133 107.46 27.982 112.751 27.5146C115.951 27.232 118.355 27.5187 119.793 28.6956C121.325 29.9502 121.365 31.8446 120.883 33.741C120.427 36.4343 118.723 38.2335 116.147 39.3496C113.635 40.4375 110.275 40.8935 106.363 41.0341C102.428 41.1755 97.7992 41 92.6891 40.7496C87.5822 40.4993 81.9828 40.1732 76.0186 39.9999C66.7544 40.8766 57.8666 41.2379 51.0372 40.2982C47.6137 39.8272 44.6199 39.0188 42.3401 37.724C40.0301 36.412 38.4282 34.5814 37.9178 32.1306C37.6657 30.9203 37.7567 29.8053 38.3053 28.8691C38.8593 27.924 39.7908 27.3119 40.8951 26.9557C43.0299 26.267 46.0828 26.4408 49.5515 27.151C53.8388 28.0289 59.0648 29.7935 64.6314 32.2211C60.2515 28.7362 56.3279 25.1938 53.2587 21.7351C50.6588 18.8053 48.6341 15.8944 47.4784 13.0939C46.3204 10.288 46.0091 7.52488 46.9536 4.96361C47.4644 3.57881 48.4358 2.56667 49.7467 1.98526ZM118.298 30.2618C117.624 29.71 116.097 29.3152 112.955 29.5928C107.236 30.0981 97.3455 32.7035 81.3053 38.103C85.3739 38.2756 89.236 38.4898 92.8176 38.6653C97.9324 38.9159 102.465 39.0857 106.284 38.9485C110.125 38.8105 113.112 38.3642 115.2 37.4597C117.21 36.5891 118.35 35.3177 118.665 33.3938L118.683 33.3076L118.759 32.9951C119.094 31.482 118.83 30.6972 118.298 30.2618ZM49.0573 29.1894C45.6653 28.4948 43.1377 28.4395 41.6274 28.9267C40.9096 29.1583 40.5025 29.4853 40.2831 29.8596C40.0584 30.243 39.9412 30.8285 40.1283 31.7271C40.4964 33.4943 41.6358 34.8717 43.5224 35.9432C45.4392 37.0318 48.098 37.7829 51.3767 38.2341C57.0587 39.0159 64.3399 38.8633 72.2103 38.2367C63.6371 33.6996 55.2388 30.4551 49.0573 29.1894ZM53.8021 3.57886C52.5157 3.40238 51.4775 3.52778 50.7121 3.86714C49.9741 4.19449 49.4072 4.7555 49.0842 5.63127C48.3613 7.59146 48.5468 9.8325 49.5821 12.3412C50.6196 14.8553 52.4846 17.5702 55.0001 20.4049C59.8723 25.8954 67.0472 31.6804 74.868 37.141C75.2241 23.4907 69.3166 13.6383 62.959 8.2421C59.6986 5.47487 56.3871 3.93355 53.8021 3.57886ZM99.0582 10.6254C98.5573 10.5717 97.9708 10.6551 97.2728 10.9421C95.8398 11.5315 94.1034 12.909 92.0494 15.2119C88.1782 19.5522 83.508 26.7972 77.9109 36.7914C85.9973 32.4984 92.6957 26.9825 96.8555 22.0279C99.0647 19.3967 100.507 16.9844 101.1 15.0461C101.699 13.0832 101.36 11.9066 100.554 11.2726C100.047 10.8739 99.552 10.6785 99.0582 10.6254Z" fill="#E3A849"/>
<path d="M49.8074 1.41797C51.139 0.896903 52.6607 0.806984 54.2084 1.0193L54.5184 1.06574C57.7334 1.58794 61.3995 3.42622 64.8075 6.31882L65.4026 6.8383C71.2586 12.0684 76.488 20.6527 77.4692 32.0804C82.2275 23.8213 86.3608 17.569 89.9428 13.553L90.3424 13.1125C92.3365 10.9444 94.2749 9.35448 96.1756 8.5726L96.5673 8.42246C97.4849 8.09815 98.4292 7.95358 99.3788 8.05542L99.5827 8.08125C100.597 8.22825 101.515 8.64972 102.324 9.28597L102.51 9.43928C104.25 10.9437 104.426 13.1573 103.87 15.3084L103.745 15.7533C103.059 17.9968 101.539 20.5252 99.4411 23.1089L99.0143 23.6263C96.4806 26.6441 93.0913 29.8217 89.0771 32.8231C100.213 29.3009 107.788 27.4511 112.707 27.0166L113.301 26.9695C116.235 26.7695 118.605 27.0773 120.109 28.309L120.269 28.4464C121.874 29.8895 121.848 31.9748 121.368 33.8644C120.899 36.558 119.253 38.4032 116.84 39.5808L116.345 39.8079C113.908 40.864 110.734 41.3331 107.111 41.5038L106.381 41.534C102.917 41.6585 98.9252 41.5388 94.5589 41.3392L92.6642 41.2491C87.5608 40.999 81.9814 40.6728 76.0358 40.4995C67.0657 41.3474 58.4105 41.7173 51.6213 40.8788L50.9693 40.7936C47.7324 40.3482 44.836 39.5995 42.5433 38.404L42.0932 38.159C39.7683 36.8386 38.0836 34.9796 37.4832 32.4771L37.4288 32.2324C37.1598 30.9409 37.2445 29.6904 37.8736 28.6167L37.9973 28.418C38.6397 27.4511 39.6336 26.8374 40.7415 26.48L41.1768 26.3541C43.4024 25.7767 46.3846 25.9926 49.6519 26.6615L50.4752 26.8379C53.7897 27.5816 57.5992 28.8124 61.6541 30.4339C58.5922 27.8645 55.8127 25.2757 53.475 22.7214L52.8851 22.0669C50.4295 19.2998 48.4614 16.5268 47.2484 13.8245L47.0161 13.2846C45.8272 10.4036 45.4838 7.50572 46.4849 4.7909L46.5947 4.51151C47.1772 3.13978 48.2008 2.12423 49.5436 1.52855L49.8074 1.41797ZM54.0727 2.01057C52.6407 1.8141 51.3017 1.90725 50.1721 2.34901L49.9499 2.44187C48.835 2.93637 47.9968 3.76827 47.5147 4.9051L47.4232 5.13614C46.5353 7.54381 46.814 10.1728 47.9409 12.9034L48.1616 13.4163C49.3172 15.9901 51.2131 18.6771 53.6323 21.4032L54.2131 22.0471C57.1654 25.2729 60.8486 28.5728 64.9425 31.8301C65.1389 31.9864 65.1888 32.2635 65.0594 32.4786C64.93 32.6937 64.6618 32.7793 64.4317 32.679C59.2318 30.4113 54.3441 28.7307 50.258 27.8138L49.4513 27.6409C46.215 26.9782 43.4246 26.8053 41.436 27.3192L41.0482 27.4311C40.0858 27.7416 39.313 28.2457 38.8297 28.9732L38.737 29.1222C38.269 29.9207 38.172 30.8997 38.4071 32.0285L38.5082 32.4488C39.07 34.5175 40.5058 36.1071 42.5868 37.2891L43.0081 37.5182C45.1554 38.6375 47.9229 39.3654 51.1051 39.8033L51.7462 39.8868C58.4273 40.7118 67.003 40.3505 75.9711 39.5019L76.0326 39.5002C82.0035 39.6737 87.6127 40.0003 92.7138 40.2503L94.6065 40.3405C98.966 40.5398 102.922 40.6576 106.344 40.5347L107.068 40.5046C110.65 40.3354 113.677 39.8742 115.948 38.8905L116.398 38.6841C118.597 37.6132 119.996 35.9923 120.391 33.6579L120.398 33.6177L120.479 33.2755C120.825 31.6877 120.712 30.2791 119.706 29.2879L119.476 29.082C118.285 28.1073 116.26 27.7725 113.382 27.9667L112.795 28.0126C107.893 28.4456 100.201 30.3303 88.6989 33.9908L86.3471 34.7471C86.1106 34.8239 85.854 34.7149 85.7444 34.4916C85.6349 34.2684 85.7058 33.9992 85.9112 33.859C91.0081 30.3799 95.2516 26.5533 98.2488 22.9834L98.6671 22.476C100.721 19.946 102.155 17.5329 102.788 15.4604L102.903 15.0519C103.411 13.092 103.187 11.3448 101.849 10.1896L101.706 10.0723C101.066 9.56916 100.364 9.23686 99.6019 9.09769L99.2724 9.04982C98.497 8.96665 97.7035 9.08244 96.9011 9.36605L96.5568 9.49734C94.8535 10.1979 93.0338 11.6633 91.0813 13.7854L90.6884 14.2189C86.9762 18.3809 82.6172 25.0475 77.5168 34.0105C77.4068 34.2035 77.1824 34.3004 76.9663 34.2489C76.75 34.1972 76.5936 34.0093 76.5827 33.7873C76.0026 21.8106 70.6828 12.8943 64.7367 7.58385L64.1597 7.08147C60.9534 4.36015 57.5707 2.65091 54.6506 2.1036L54.0727 2.01057ZM113.492 29.0501C114.805 28.9628 115.831 28.9983 116.629 29.1218C117.536 29.2623 118.183 29.5215 118.615 29.8748L118.749 29.9943C119.39 30.6177 119.576 31.6148 119.247 33.1032L119.245 33.1121L119.172 33.41L119.173 33.411L119.155 33.4974C118.981 34.5321 118.583 35.4111 117.946 36.1487C117.389 36.7952 116.663 37.3163 115.785 37.7421L115.399 37.9184C113.358 38.8026 110.537 39.2519 107.016 39.4187L106.302 39.4485C102.939 39.5693 99.0337 39.4528 94.6841 39.2541L92.7933 39.1648C89.2073 38.9891 85.3506 38.7747 81.284 38.6022C81.0433 38.5919 80.8444 38.4117 80.8105 38.1732C80.7766 37.9347 80.9174 37.7058 81.1457 37.6289C97.18 32.2316 107.124 29.6062 112.911 29.0949L113.492 29.0501ZM116.475 30.1106C115.771 30.0014 114.822 29.9638 113.56 30.0476L112.999 30.0909C107.653 30.5632 98.5638 32.902 84.0174 37.7243C87.1069 37.8699 90.0622 38.0299 92.8419 38.1661L94.7317 38.2554C99.0748 38.4538 102.945 38.5684 106.266 38.4491L106.973 38.4195C110.453 38.2542 113.128 37.8128 115.001 37.001L115.349 36.8413C116.134 36.4606 116.74 36.0157 117.19 35.4948C117.7 34.9036 118.028 34.1919 118.172 33.3126L118.176 33.29L118.194 33.2036L118.197 33.1908L118.273 32.8781C118.548 31.625 118.359 31.0556 118.097 30.76L117.982 30.6488C117.739 30.4504 117.286 30.2361 116.475 30.1106ZM41.7929 28.3589C43.4461 27.9343 45.9622 28.0457 49.1572 28.6999L49.7496 28.8247C55.9299 30.183 64.1152 33.3868 72.4439 37.7945C72.6404 37.8985 72.7446 38.1199 72.6997 38.3377C72.6547 38.5554 72.4717 38.7178 72.2502 38.7355C64.8627 39.3237 57.9633 39.4969 52.4029 38.866L51.309 38.7291C48.208 38.3024 45.6145 37.6057 43.6583 36.5865L43.2757 36.3779C41.4221 35.3251 40.2027 33.9556 39.7243 32.1878L39.6385 31.8286C39.4343 30.8476 39.547 30.1265 39.8518 29.6063L39.9749 29.4214C40.287 29.0015 40.7771 28.6753 41.474 28.4504L41.7929 28.3589ZM48.9566 29.6792C45.7919 29.0312 43.468 28.9639 42.0522 29.325L41.7807 29.4025C41.2214 29.583 40.9317 29.8092 40.7744 30.0223L40.7143 30.1128C40.5699 30.3596 40.4481 30.8095 40.6178 31.6247L40.6882 31.9198C41.0805 33.375 42.0854 34.5525 43.7693 35.5089L44.1232 35.7008C45.9339 36.6436 48.3985 37.3196 51.4447 37.7388L52.519 37.8733C57.5447 38.4433 63.7234 38.3453 70.4208 37.8689C62.6871 33.9069 55.2179 31.0512 49.5373 29.8024L48.9566 29.6792ZM50.6763 3.34081C51.5265 3.00843 52.6055 2.91033 53.8698 3.08374L54.3849 3.1677C57 3.65933 60.1801 5.22763 63.2827 7.86097L63.8868 8.38901C70.1167 13.9787 75.7172 23.7762 75.3683 37.1538C75.3635 37.3376 75.2577 37.5041 75.0936 37.5871C74.9294 37.67 74.7326 37.6562 74.5817 37.5509C66.9941 32.2531 59.9879 26.6341 55.0928 21.2568L54.6256 20.7369C52.2493 18.059 50.4279 15.4632 49.3302 13.0188L49.1199 12.532C48.0534 9.94782 47.8354 7.57157 48.6148 5.45802L48.688 5.27338C49.0695 4.37163 49.7035 3.76706 50.5091 3.40974L50.6763 3.34081ZM98.8826 10.1123L99.1117 10.1287L99.3343 10.1609C99.853 10.2552 100.361 10.4849 100.863 10.8792L101.05 11.0403C101.879 11.8249 102.133 13.085 101.685 14.8147L101.578 15.1917C100.996 17.0944 99.651 19.3865 97.6482 21.8535L97.2384 22.349C93.0326 27.3583 86.282 32.9136 78.1458 37.2332C77.95 37.3371 77.7084 37.2999 77.5533 37.1415C77.3983 36.9829 77.3666 36.7402 77.475 36.5467C83.0736 26.5498 87.7658 19.2634 91.676 14.8793L92.0613 14.4539C93.9702 12.3803 95.64 11.0731 97.0822 10.4798L97.3627 10.3727C97.9149 10.1773 98.4191 10.0962 98.8826 10.1123ZM53.734 4.07404C52.6629 3.92712 51.8107 4.00641 51.1746 4.22335L50.9145 4.32407C50.375 4.56341 49.9479 4.94542 49.6651 5.53748L49.5531 5.80423C48.8868 7.61105 49.0405 9.71765 50.0446 12.1508L50.2425 12.6115C51.2828 14.9274 53.0339 17.4363 55.3738 20.0731L55.8339 20.5845C60.4895 25.6984 67.1181 31.0668 74.3812 36.1866C74.443 23.6006 69.0968 14.4069 63.2199 9.13361L62.6358 8.6236C59.6252 6.06834 56.6015 4.60315 54.205 4.15136L53.734 4.07404ZM99.0043 11.1212C98.653 11.0836 98.2244 11.1281 97.6955 11.3153L97.4634 11.4045C96.2188 11.9164 94.6681 13.0995 92.8003 15.1278L92.4226 15.5452C88.788 19.6203 84.4197 26.3103 79.2049 35.5139C86.5546 31.3825 92.6229 26.2916 96.4729 21.7061L96.8732 21.2206C98.8323 18.8072 100.092 16.6314 100.621 14.8997L100.718 14.5601C101.117 13.0252 100.826 12.2009 100.35 11.7555L100.245 11.6655C99.8037 11.3187 99.3955 11.1632 99.0043 11.1212Z" fill="#151413"/>
</svg>
