<svg width="120" height="114" viewBox="0 0 120 114" fill="none" xmlns="http://www.w3.org/2000/svg">
<g id="Vector">
<path d="M15.2864 14.187L16.4008 16.4658C16.4422 16.55 16.5297 16.5996 16.6172 16.5896C16.7047 16.5797 16.7784 16.5054 16.7968 16.4113L17.3217 13.8997C17.7453 11.8637 18.9794 10.1348 20.6924 9.1639L22.8106 7.96508C22.8888 7.92049 22.9349 7.82637 22.9211 7.73225C22.9073 7.63813 22.8428 7.55887 22.7553 7.53905L20.4207 6.97432C18.5282 6.51857 16.9211 5.19095 16.0186 3.34813L14.9042 1.06939C14.8628 0.985172 14.7753 0.935634 14.6878 0.950496C14.6003 0.965357 14.5266 1.03471 14.5082 1.12883L13.9833 3.64041C13.5596 5.67642 12.3256 7.4053 10.6126 8.37624L8.49444 9.57506C8.41616 9.61965 8.37011 9.71377 8.38392 9.80789C8.39774 9.90201 8.4622 9.98127 8.54969 10.0011L10.8843 10.5658C12.7768 11.0216 14.3839 12.3492 15.2864 14.192V14.187Z" fill="#E3A849"/>
<path fill-rule="evenodd" clip-rule="evenodd" d="M4.70801 27.4943C5.02891 27.4408 5.32927 27.6175 5.46983 27.8978L5.47055 27.8992L6.21377 29.3906C6.73527 30.4353 7.66334 31.1873 8.75504 31.4452L10.3106 31.8145C10.6277 31.8875 10.8357 32.1611 10.8796 32.4545C10.93 32.7918 10.7636 33.1085 10.4975 33.2572L9.08344 34.0426C8.0941 34.5929 7.38165 35.5726 7.13709 36.726L6.78732 38.3682C6.71834 38.7018 6.45965 38.9219 6.18053 38.9685C5.85964 39.0219 5.55928 38.8453 5.41872 38.565L5.418 38.5636L4.67477 37.0722C4.15331 36.0273 3.22533 35.2755 2.13351 35.0175L0.577984 34.6483C0.260848 34.5752 0.0528732 34.3016 0.008993 34.0082C-0.0414464 33.671 0.12496 33.3542 0.391004 33.2055L0.39237 33.2048L1.80511 32.4202C2.7944 31.8699 3.5069 30.8902 3.75146 29.7368L4.10121 28.0947C4.17017 27.761 4.42888 27.5409 4.70801 27.4943ZM4.99124 29.6282L5.1632 29.9733C5.84588 31.3412 7.062 32.3276 8.49518 32.6663L8.8591 32.7527L8.52947 32.9358C7.23332 33.6567 6.29924 34.9407 5.97857 36.453L5.89731 36.8345L5.72551 36.4898C5.04289 35.1221 3.82675 34.1353 2.39372 33.7965M2.39372 33.7965L2.02945 33.7101L2.35908 33.527C3.65511 32.8061 4.58914 31.5223 4.90988 30.0102" fill="#E3A849"/>
<path d="M19.8611 90.0513L18.7485 89.7172C17.8478 89.4456 17.1029 88.7725 16.7137 87.8752L16.2311 86.7664C16.2143 86.7254 16.1719 86.6994 16.1284 86.7039C16.0849 86.7084 16.0485 86.7401 16.0372 86.7821L15.7206 87.9553C15.4632 88.9049 14.825 89.6903 13.9741 90.1005L12.922 90.6068C12.8831 90.6245 12.8584 90.6692 12.8627 90.7151C12.867 90.7611 12.8971 90.7994 12.9369 90.8114L14.0495 91.1454C14.9501 91.4171 15.6951 92.0902 16.0843 92.9875L16.5668 94.0962C16.5836 94.1372 16.626 94.1632 16.6696 94.1588C16.7131 94.1543 16.7494 94.1225 16.7608 94.0805L17.0774 92.9074C17.3348 91.9578 17.973 91.1724 18.8238 90.7622L19.8752 90.2536C19.9141 90.2359 19.9388 90.1912 19.9345 90.1453C19.9302 90.0994 19.9001 90.0611 19.8595 90.0469L19.8611 90.0513Z" fill="#E3A849"/>
<path d="M42.9131 108.077L41.3088 107.595C40.0102 107.203 38.9361 106.233 38.375 104.939L37.6792 103.34C37.655 103.281 37.5938 103.244 37.531 103.25C37.4683 103.257 37.4159 103.303 37.3995 103.363L36.943 105.055C36.5719 106.424 35.6517 107.556 34.4249 108.148L32.9078 108.878C32.8517 108.903 32.8161 108.968 32.8223 109.034C32.8285 109.1 32.8719 109.155 32.9293 109.173L34.5335 109.654C35.8322 110.046 36.9063 111.017 37.4674 112.31L38.1632 113.909C38.1874 113.968 38.2485 114.006 38.3113 113.999C38.3741 113.993 38.4265 113.947 38.4429 113.886L38.8993 112.195C39.2705 110.826 40.1907 109.693 41.4175 109.102L42.9335 108.369C42.9896 108.343 43.0251 108.279 43.0189 108.212C43.0128 108.146 42.9694 108.091 42.9108 108.07L42.9131 108.077Z" fill="#E3A849"/>
<path fill-rule="evenodd" clip-rule="evenodd" d="M104.655 56.6314C104.496 56.306 104.165 56.1498 103.866 56.1784C103.527 56.2109 103.238 56.4793 103.169 56.8364L102.666 59.1879C102.297 60.9219 101.223 62.3951 99.7304 63.2243L97.7039 64.347C97.3953 64.5138 97.2471 64.8636 97.2742 65.1783C97.305 65.5354 97.5597 65.8407 97.8984 65.9136L100.129 66.4431C101.774 66.8324 103.171 67.965 103.958 69.5381L105.023 71.6744C105.181 71.9998 105.513 72.1561 105.811 72.1274C106.15 72.095 106.44 71.8265 106.509 71.4695L107.011 69.118C107.38 67.3839 108.455 65.9106 109.947 65.0815L111.975 63.9504C112.06 63.904 112.134 63.8435 112.194 63.7735L112.25 63.7868V63.7009C112.368 63.5295 112.42 63.3176 112.403 63.1197C112.372 62.7569 112.11 62.4476 111.763 62.3811L111.604 62.3506L109.549 61.8627C107.904 61.4735 106.506 60.3409 105.72 58.7679L104.655 56.6314ZM110.482 63.3671L109.289 63.0838C107.302 62.6137 105.617 61.2465 104.669 59.351L104.095 58.198L103.825 59.462C103.379 61.5557 102.082 63.3326 100.284 64.3315L99.19 64.9374L100.389 65.222C102.375 65.6921 104.061 67.0593 105.008 68.9548L105.583 70.1078L105.853 68.8439C106.299 66.7501 107.596 64.9735 109.394 63.9745L110.482 63.3671Z" fill="#E3A849"/>
<path d="M119.866 20.1672L117.967 19.6469C116.429 19.2235 115.141 18.1154 114.445 16.6054L113.587 14.74C113.551 14.6697 113.487 14.6302 113.411 14.6361C113.335 14.6419 113.277 14.6979 113.26 14.7762L112.769 16.779C112.37 18.4018 111.321 19.7591 109.89 20.4912L108.123 21.3943C108.057 21.4327 108.019 21.4998 108.025 21.5803C108.031 21.6608 108.084 21.7215 108.158 21.7397L110.057 22.26C111.595 22.6834 112.883 23.7915 113.579 25.3014L114.437 27.1669C114.474 27.2372 114.537 27.2767 114.613 27.2708C114.69 27.2649 114.747 27.209 114.764 27.1307L115.255 25.1279C115.655 23.5051 116.704 22.1478 118.134 21.4157L119.901 20.5126C119.968 20.4742 120.005 20.4071 119.999 20.3266C119.994 20.2461 119.941 20.1854 119.866 20.1672Z" fill="#E3A849"/>
</g>
</svg>
